<svg width="25" height="24" viewBox="0 0 25 24" fill="none" xmlns="http://www.w3.org/2000/svg">
<path fill-rule="evenodd" clip-rule="evenodd" d="M17.8003 17.385L20.2546 6.54072C20.3746 6.01072 19.8089 5.56786 19.2617 5.75929L19.0017 5.85215L4.89029 10.9364C4.79058 10.9679 4.70406 11.0314 4.64416 11.117C4.58426 11.2027 4.55435 11.3058 4.55908 11.4102C4.5638 11.5146 4.6029 11.6146 4.67029 11.6945C4.73768 11.7744 4.82958 11.8298 4.93172 11.8521L8.58457 12.8521L9.266 14.8521L9.94743 16.8521C9.98673 16.9501 10.0493 17.0369 10.1298 17.1052C10.2103 17.1735 10.3062 17.2211 10.4092 17.2439C10.5122 17.2667 10.6193 17.264 10.721 17.2361C10.8228 17.2081 10.9162 17.1558 10.9931 17.0836L12.8803 15.2993L16.586 17.8136C17.0389 18.1236 17.6846 17.8936 17.8003 17.385ZM11.085 13.3821L17.4607 8.17068C17.6207 8.03925 17.435 7.81068 17.2536 7.91639L16.005 8.63068L9.3707 12.4335C9.30455 12.4688 9.25287 12.5261 9.22468 12.5956C9.19648 12.665 9.19356 12.7422 9.21641 12.8135L9.75213 14.4064L10.2707 15.9635C10.2724 15.9825 10.2816 16 10.2962 16.0122C10.3108 16.0243 10.3296 16.0302 10.3486 16.0285C10.3675 16.0268 10.385 16.0177 10.3972 16.0031C10.4094 15.9885 10.4153 15.9696 10.4136 15.9507L10.5978 14.3935L10.665 13.8392C10.6761 13.7559 10.7191 13.6801 10.785 13.6278L11.085 13.3821Z" fill="white"/>
</svg>
