<svg width="120" height="120" viewBox="0 0 120 120" fill="none" xmlns="http://www.w3.org/2000/svg">
<path d="M92.2407 29.2275C87.5596 24.6058 74.6582 29.5093 60.8244 40.3684C46.7431 29.1711 33.5182 24.0422 28.7611 28.739C24.0039 33.4359 29.1987 46.5119 40.5588 60.3957C29.6554 73.9978 24.727 86.6604 29.389 91.2633C34.0701 95.885 46.9715 90.9815 60.8053 80.1224C74.3918 90.6246 86.9697 95.3026 91.5747 90.7561C96.1796 86.2095 91.4415 73.7911 80.8235 60.3769C91.9172 46.681 96.9407 33.868 92.2407 29.2275Z" fill="#3187FF"/>
<path d="M60.5 60.7905C62.2075 60.3887 64.9018 58.6735 64.1661 61.9976C64.1161 62.2236 63.397 64 63.1553 64C62.8888 64 62.481 62.6552 62.2652 62.4521C61.3508 61.5914 62.1765 61.0668 62.9742 60.5207C64.8224 59.2555 67.1598 58.9078 69.2504 58.1207C70.2265 57.7532 71.1988 57.3734 72.1772 57.013C72.6682 56.8321 72.4488 58.5991 72.4488 58.7739C72.4488 59.4291 72.7572 60.7073 71.8604 60.9183C70.7253 61.1854 69.3872 61.1608 68.2245 61.245C66.6519 61.3588 65.0643 61.3018 63.4872 61.3018" stroke="white" stroke-width="3" stroke-linecap="round"/>
<path d="M59.5 62C54.9471 63.3228 50.1766 64.5697 47.3111 68.5382C47.1518 68.7588 46.3517 70.226 46.5242 70.3889C47.0452 70.8808 49.1256 70.906 49.7431 70.9428C51.2945 71.0351 52.9189 71.2249 53.2625 69.5379C53.4471 68.6315 53.4951 67.7869 53.5915 66.8766C53.7236 65.629 55.9538 63.3593 57.1824 62.9726" stroke="white" stroke-width="5" stroke-linecap="round"/>
<path d="M58.5 64.0056C58.8634 65.7084 60.1029 67.5062 60.9901 68.9638C61.7808 70.2628 62.6426 71.3764 64.0923 71.9388C65.5938 72.5212 66.5352 68.7794 66.499 67.8884C66.4569 66.8529 66.2638 65.3465 64.9548 65.2626C64.6925 65.2458 63.0624 65.4041 63.1464 65.095C63.6656 63.1835 61.9022 63.3844 60.7536 63" stroke="white" stroke-width="5" stroke-linecap="round"/>
<path d="M58.632 62C58.4259 59.6189 56.3154 58.3312 54.0667 58.0372C53.1129 57.9124 51.4157 58.1197 50.5945 57.5418C48.495 56.0643 49.8399 51.3475 51.1089 49.8019C52.0962 48.5995 52.2206 48.8478 53.0701 49.8948C54.4723 51.6233 56.2807 52.9094 57.9247 54.3994C58.5092 54.9292 58.9277 55.4469 58.857 56.2415C58.7252 57.722 58.5725 59.1789 58.632 60.6687C58.6805 61.8848 59.3798 59.7624 59.5 59.4923" stroke="white" stroke-width="5" stroke-linecap="round"/>
<path d="M59.5 59C60.598 57.4283 60.9827 55.3628 61.5312 53.5273C61.861 52.4235 62.1248 50.6606 62.8455 49.7648C63.5334 48.9096 64.3066 48.7575 65.2085 49.3799C66.2136 50.0736 64.3179 52.7784 64.0535 53.4703C63.5706 54.7341 63.0255 56.4979 62.1286 57.4608" stroke="white" stroke-width="3" stroke-linecap="round"/>
<path d="M60.3614 60.1437C61.2724 59.867 63.4573 57.4823 63.4983 59.6673C63.5437 62.0871 62.658 62.4291 61.3611 60.7222C60.7233 59.8827 62.1284 58.8742 61.8437 60.6541C61.7525 61.2244 61.5881 62.5775 60.913 61.726C60.6217 61.3586 59.0139 59.2425 59.1894 59.293C59.519 59.3879 60.7865 60.2759 59.8616 59.9396C58.9637 59.613 58.6707 58.8423 58.5 58" stroke="#FFB800" stroke-width="3" stroke-linecap="round"/>
</svg>
