<svg width="120" height="120" viewBox="0 0 120 120" fill="none" xmlns="http://www.w3.org/2000/svg">
<path d="M42.75 43.7501H42.9788C52.147 43.6585 59.5305 36.1683 59.5 27.0001C50.3317 26.9696 42.8415 34.353 42.75 43.5212V43.7501C33.5665 43.7196 26.0915 51.103 26 60.2712V60.5H26.2288C35.3971 60.3933 42.7805 52.9183 42.75 43.7501C42.7195 52.9183 50.1029 60.3933 59.2711 60.5H59.5V60.2712C59.3932 51.103 51.9182 43.7196 42.75 43.7501Z" fill="#BDFF32"/>
<path d="M59.5 60.2712V60.5001H59.7288C68.8971 60.4085 76.2805 52.9183 76.25 43.7501C76.2195 52.9183 83.6029 60.3933 92.7711 60.5001H93V60.2712C92.9084 51.103 85.4335 43.7196 76.25 43.7501C67.0817 43.7196 59.6068 51.103 59.5 60.2712Z" fill="#BDFF32"/>
<path d="M76.0212 43.7501H76.2501V43.5212C76.1585 34.3377 68.6683 26.9696 59.5001 27.0001C59.4696 36.1683 66.853 43.6433 76.0212 43.7501Z" fill="#BDFF32"/>
<path d="M42.7501 77.2501H42.9789C52.1471 77.1585 59.5306 69.6683 59.5 60.5001C50.3318 60.4696 42.8416 67.853 42.7501 77.0212C42.6433 67.853 35.1683 60.4696 26.0001 60.5001C25.9696 69.6683 33.353 77.1585 42.5212 77.2501H42.7501C42.7196 86.4336 50.103 93.9085 59.2712 94H59.5V93.7712C59.3933 84.603 51.9183 77.2196 42.7501 77.2501Z" fill="#BDFF32"/>
<path d="M76.2501 77.0212C76.1585 67.853 68.6683 60.4696 59.5001 60.5001C59.4696 69.6683 66.853 77.1585 76.0212 77.2501H76.2501C67.0818 77.2196 59.6069 84.603 59.5001 93.7712V94H59.7289C68.8972 93.9085 76.2806 86.4336 76.2501 77.2501H76.4789C85.6471 77.1585 93.0306 69.6683 93 60.5001C83.8318 60.4696 76.3569 67.853 76.2501 77.0212Z" fill="#BDFF32"/>
<path d="M93.8252 53.6989C94.9013 53.4299 96.5993 52.2815 96.1356 54.5071C96.1041 54.6584 95.6509 55.8477 95.4986 55.8477C95.3307 55.8477 95.0737 54.9474 94.9376 54.8114C94.3614 54.2352 94.8817 53.8839 95.3845 53.5183C96.5492 52.6712 98.0223 52.4384 99.3398 51.9114C99.955 51.6654 100.568 51.4111 101.184 51.1698C101.494 51.0487 101.356 52.2318 101.356 52.3488C101.356 52.7874 101.55 53.6432 100.985 53.7845C100.269 53.9633 99.426 53.9468 98.6933 54.0032C97.7022 54.0794 96.7017 54.0412 95.7078 54.0412" stroke="white" stroke-width="3" stroke-linecap="round"/>
<path d="M93.1398 54.2119C90.114 55.1429 86.9435 56.0206 85.039 58.8138C84.9332 58.969 84.4014 60.0017 84.5161 60.1164C84.8623 60.4626 86.245 60.4803 86.6554 60.5062C87.6864 60.5711 88.766 60.7048 88.9943 59.5174C89.117 58.8794 89.149 58.285 89.213 57.6443C89.3008 56.7662 90.783 55.1687 91.5995 54.8965" stroke="white" stroke-width="3" stroke-linecap="round"/>
<path d="M92.1133 55.7529C92.3617 56.9121 93.2088 58.136 93.8152 59.1283C94.3556 60.0125 94.9446 60.7706 95.9355 61.1535C96.9617 61.55 97.6051 59.0027 97.5804 58.3961C97.5516 57.6913 97.4196 56.6658 96.525 56.6086C96.3457 56.5972 95.2316 56.705 95.2889 56.4946C95.6438 55.1932 94.4386 55.33 93.6536 55.0684" stroke="white" stroke-width="3" stroke-linecap="round"/>
<path d="M92.1133 54.2124C91.9914 52.7499 90.7431 51.9589 89.413 51.7783C88.8489 51.7017 87.845 51.829 87.3593 51.4741C86.1175 50.5666 86.9129 47.6694 87.6636 46.7201C88.2475 45.9815 88.3211 46.134 88.8235 46.7771C89.653 47.8388 90.7226 48.6288 91.6949 49.544C92.0407 49.8694 92.2882 50.1874 92.2464 50.6754C92.1685 51.5847 92.0781 52.4796 92.1133 53.3947C92.142 54.1416 92.5556 52.838 92.6267 52.6721" stroke="white" stroke-width="3" stroke-linecap="round"/>
<path d="M92.627 52.6714C93.4134 51.6228 93.6889 50.2448 94.0817 49.0203C94.3179 48.2839 94.5068 47.1078 95.023 46.5102C95.5157 45.9397 96.0694 45.8382 96.7154 46.2535C97.4352 46.7162 96.0775 48.5207 95.8882 48.9823C95.5423 49.8254 95.1519 51.0021 94.5095 51.6445" stroke="white" stroke-width="3" stroke-linecap="round"/>
<path d="M93.5956 53.25C94.1724 53.0725 95.5558 51.543 95.5817 52.9445C95.6105 54.4965 95.0497 54.7159 94.2285 53.6211C93.8247 53.0826 94.7144 52.4357 94.5341 53.5774C94.4763 53.9432 94.3722 54.8111 93.9448 54.2649C93.7604 54.0293 92.7423 52.672 92.8535 52.7044C93.0622 52.7652 93.8647 53.3348 93.2791 53.1191C92.7106 52.9096 92.525 52.4153 92.417 51.875" stroke="#FFB800" stroke-width="3" stroke-linecap="round"/>
<path d="M62.4517 62.6453C62.2958 60.774 61.4921 58.4953 59.856 57.4349C58.5017 56.5572 57.0692 56.4757 55.4919 56.4841C53.9584 56.4924 51.5371 56.3457 50.2054 57.3018C48.3341 58.6453 50.6412 60.102 51.8693 60.4204C53.7701 60.9132 55.6825 60.8054 57.5076 61.5424C58.7542 62.0458 59.6586 62.2015 60.9114 62.1319C61.7214 62.0869 61.0584 60.4153 60.7117 60.0687C59.9809 59.3378 58.7438 59.2534 57.7928 59.0513C56.7461 58.8289 55.6479 58.4639 54.5791 58.3667C54.0671 58.3202 53.6271 58.1392 53.0959 58.2336C52.8935 58.2696 52.1014 58.3667 52.6965 58.3667" stroke="white" stroke-width="3" stroke-linecap="round"/>
<path d="M58.858 61.6182C57.4367 61.8766 55.9341 63.0629 54.6174 63.6719C53.7523 64.072 53.1461 64.6781 52.7824 65.5735C52.5702 66.0957 52.0551 67.1911 52.3165 67.7793C52.6275 68.4791 54.7946 68.3006 55.34 68.2832C56.4323 68.2486 58.6678 67.7172 58.6678 66.2295C58.6678 65.3084 58.6353 64.4287 58.6868 63.5007C58.7248 62.8178 59.9367 62.8162 60.3983 62.8162" stroke="white" stroke-width="3" stroke-linecap="round"/>
<path d="M61.083 63.8424C61.1218 66.0148 61.3463 68.9893 63.9164 69.5852C65.163 69.8743 65.7039 67.6748 65.7039 66.7899C65.7039 65.6116 65.3221 63.707 64.0685 63.2339C63.2416 62.9219 62.1215 64.5852 61.9387 63.6713" stroke="white" stroke-width="3" stroke-linecap="round"/>
<path d="M60.5693 60.0781C62.4892 58.1582 64.2826 55.7025 67.0443 55.0484C68.5726 54.6864 68.8419 56.4333 68.5941 57.6726C68.4299 58.4932 66.8249 58.8142 66.2171 59.0893C65.0721 59.6075 64.1305 60.3214 63.1365 61.0669C62.8688 61.2677 61.16 62.3656 61.7673 61.9607" stroke="white" stroke-width="3" stroke-linecap="round"/>
<path d="M65.7041 57.5107C65.3555 57.7722 64.7803 58.0242 64.335 58.0242" stroke="white" stroke-width="3" stroke-linecap="round"/>
<path d="M60.1637 60.9308C60.2521 60.4667 61.3423 58.5246 61.3423 59.8177C61.3423 60.2494 61.6816 62.3052 60.753 61.5092C60.4355 61.2371 60.2484 60.88 60.371 60.4507C60.3977 60.3572 60.2765 61.6929 60.1637 62.0876C59.9333 62.8939 56.8115 60.5147 58.7887 60.7344C59.2255 60.7829 59.2366 61.8257 58.9851 61.8257C58.4083 61.8257 59.2896 59.5581 59.378 59.3594" stroke="#FFB800" stroke-width="3" stroke-linecap="round"/>
<path d="M39.5314 38.5812C39.1547 37.9032 37.1507 38.1129 36.5649 38.2769C35.238 38.6485 34.2481 39.9722 33.5033 41.0533C32.2694 42.8445 31.8381 44.9008 34.1879 45.9023C36.6729 46.9615 38.7405 39.9387 39.8737 38.2389" stroke="white" stroke-width="3" stroke-linecap="round"/>
<path d="M39.5322 39.2654C39.6138 41.8755 40.5602 44.0303 42.1849 46.016C43.2287 47.2917 44.3162 44.9156 44.6285 44.2285C45.4667 42.3845 44.3459 40.7131 43.3069 39.2844C42.8321 38.6316 42.5014 38.0674 41.5859 38.0674" stroke="white" stroke-width="3" stroke-linecap="round"/>
<path d="M39.3609 37.7252C37.6113 36.178 35.2725 35.2023 35.2725 32.7145C35.2725 31.5664 36.9087 30.8042 37.7826 31.564C38.641 32.3105 39.0329 33.909 39.551 34.8918C39.7919 35.3487 40.2784 35.8444 40.131 36.3751C40.0532 36.6551 39.828 38.4793 40.2166 37.8963" stroke="white" stroke-width="3" stroke-linecap="round"/>
<path d="M40.2166 36.8695C40.5021 35.5371 41.8227 34.4275 42.7076 33.4847C43.8741 32.2419 44.9341 31.507 46.6439 31.2598C47.2876 31.1668 50.509 30.654 50.9606 31.3929C51.1856 31.7612 50.9941 32.701 50.7419 33.0093C50.0736 33.826 48.5043 34.184 47.5567 34.4735C45.9447 34.9661 44.481 35.5004 42.7837 35.5004C41.4039 35.5004 39.5559 35.5998 39.0186 37.2118" stroke="white" stroke-width="3" stroke-linecap="round"/>
<path d="M38.7617 36.8697C39.0385 36.3438 40.5566 34.6103 40.6933 36.1822C40.7271 36.571 40.3431 37.948 39.8312 37.6555C39.4138 37.417 39.1055 36.8265 39.5911 36.4769C40.3336 35.9423 40.2921 37.546 39.7439 36.084" stroke="#FFB800" stroke-width="3" stroke-linecap="round"/>
</svg>
