<svg width="75" height="75" viewBox="0 0 75 75" fill="none" xmlns="http://www.w3.org/2000/svg">
<path d="M37.4163 13.5801C32.3309 16.7965 33.9604 25.6615 35.4108 29.6919L45.1312 32.1546C46.445 28.7577 49.1592 21.5496 49.5056 19.8922C49.8521 18.2347 48.7952 15.289 48.2235 14.0232C46.74 12.5354 42.5018 10.3638 37.4163 13.5801Z" fill="white"/>
<path d="M15.8703 34.5451C17.9085 39.2741 24.2618 40.2492 29.2837 40.0415C31.9289 39.932 34.1095 38.1107 35.1538 35.6763C36.7513 31.9521 35.3166 27.6133 31.7759 25.6462C28.8695 24.0316 26.0553 22.5231 25.0538 22.1459C23.9284 21.722 22.1346 21.8308 20.5826 22.0741C19.0445 22.3153 17.5629 22.9842 16.6454 24.2429C15.1004 26.3622 13.886 29.9414 15.8703 34.5451Z" fill="white"/>
<path d="M59.9629 26.4284C56.434 23.5437 51.0361 25.3651 47.1672 27.5735C45.1291 28.737 44.1535 31.0565 44.3221 33.3945C44.5801 36.9706 47.4745 39.7943 51.0617 39.8974C54.0073 39.9821 56.8373 40.021 57.7794 39.9094C58.7699 39.792 60.0314 39.0698 61.1094 38.3029C62.3792 37.3994 63.3959 36.1155 63.5821 34.5696C63.8565 32.2909 63.267 29.1293 59.9629 26.4284Z" fill="white"/>
<path d="M54.8233 52.3392C56.1159 48.3209 52.8804 45.1228 49.8615 42.3583C47.8165 40.4856 44.7203 39.8903 42.2173 41.0955C39.4945 42.4065 38.1618 45.5582 39.5128 48.2556C40.1397 49.5073 40.7165 50.5342 41.0947 51.2413C41.6456 52.2713 44.0699 54.4504 45.9292 55.898C47.1591 56.8557 48.6699 57.4924 50.2208 57.3171C51.864 57.1313 53.6022 56.1353 54.8233 52.3392Z" fill="white"/>
<path d="M29.2174 57.7399C33.6003 57.4767 36.7257 53.3176 38.3571 49.4445C39.3649 47.0517 38.4236 44.4118 36.5513 42.619C33.6455 39.8366 29.0106 39.5644 25.6697 41.8139C23.3183 43.3971 21.1587 44.884 20.6844 45.6326C19.5282 47.4574 19.4211 48.7723 19.5651 49.81C19.7799 51.3571 20.1269 52.9581 21.0414 54.2227C22.384 56.0794 24.9585 57.9957 29.2174 57.7399Z" fill="white"/>
<path d="M48.2599 31.2769C47.33 28.1746 42.3838 27.8316 41.6319 27.6925C37.6603 26.9576 33.6589 28.3972 30.9826 31.4222C28.894 33.7828 30.25 37.7882 29.991 39.6633C29.7319 41.5383 32.8284 43.5765 34.4971 45.0528C36.1657 46.5291 38.2452 45.5632 41.6654 45.2575C43.883 45.0593 45.3889 42.7034 46.138 40.8943C46.4469 40.1481 46.7273 39.3896 47.0368 38.6436C47.8942 36.5766 48.877 33.3356 48.2599 31.2769Z" fill="#FFEB3C"/>
</svg>
