<svg width="120" height="120" viewBox="0 0 120 120" fill="none" xmlns="http://www.w3.org/2000/svg">
<path d="M63.9923 104C48.9143 104 36.709 91.7796 36.709 76.7168H91.2909C91.2757 91.7796 79.0704 104 63.9923 104Z" fill="#FFB800"/>
<path d="M63.9923 76.7164C51.6654 76.7164 41.6792 66.7302 41.6792 54.4033H86.3205C86.3053 66.715 76.3192 76.7164 63.9923 76.7164Z" fill="#FFB800"/>
<path d="M63.9924 54.3884C54.3862 54.3884 46.604 46.6062 46.604 37H81.396C81.3808 46.6062 73.5986 54.3884 63.9924 54.3884Z" fill="#FFB800"/>
<path d="M37.0314 57.5812C36.6547 56.9032 34.6507 57.1129 34.0649 57.2769C32.738 57.6485 31.7481 58.9722 31.0033 60.0533C29.7694 61.8445 29.3381 63.9008 31.6879 64.9023C34.1729 65.9615 36.2405 58.9387 37.3737 57.2389" stroke="white" stroke-width="3" stroke-linecap="round"/>
<path d="M37.0322 58.2654C37.1138 60.8755 38.0602 63.0303 39.6849 65.016C40.7287 66.2917 41.8162 63.9156 42.1285 63.2285C42.9667 61.3845 41.8459 59.7131 40.8069 58.2844C40.3321 57.6316 40.0014 57.0674 39.0859 57.0674" stroke="white" stroke-width="3" stroke-linecap="round"/>
<path d="M36.8609 56.7252C35.1113 55.178 32.7725 54.2023 32.7725 51.7145C32.7725 50.5664 34.4087 49.8042 35.2826 50.564C36.141 51.3105 36.5329 52.909 37.051 53.8918C37.2919 54.3487 37.7784 54.8444 37.631 55.3751C37.5532 55.6551 37.328 57.4793 37.7166 56.8963" stroke="white" stroke-width="3" stroke-linecap="round"/>
<path d="M37.7166 55.8695C38.0021 54.5371 39.3227 53.4275 40.2076 52.4847C41.3741 51.2419 42.4341 50.507 44.1439 50.2598C44.7876 50.1668 48.009 49.654 48.4606 50.3929C48.6856 50.7612 48.4941 51.701 48.2419 52.0093C47.5736 52.826 46.0043 53.184 45.0567 53.4735C43.4447 53.9661 41.981 54.5004 40.2837 54.5004C38.9039 54.5004 37.0559 54.5998 36.5186 56.2118" stroke="white" stroke-width="3" stroke-linecap="round"/>
<path d="M36.2617 55.8697C36.5385 55.3438 38.0566 53.6103 38.1933 55.1822C38.2271 55.571 37.8431 56.948 37.3312 56.6555C36.9138 56.417 36.6055 55.8265 37.0911 55.4769C37.8336 54.9423 37.7921 56.546 37.2439 55.084" stroke="#FFB800" stroke-width="3" stroke-linecap="round"/>
<path d="M51.9517 26.6453C51.7958 24.774 50.9921 22.4953 49.356 21.4349C48.0017 20.5572 46.5692 20.4757 44.9919 20.4841C43.4584 20.4924 41.0371 20.3457 39.7054 21.3018C37.8341 22.6453 40.1412 24.102 41.3693 24.4204C43.2701 24.9132 45.1825 24.8054 47.0076 25.5424C48.2542 26.0458 49.1586 26.2015 50.4114 26.1319C51.2214 26.0869 50.5584 24.4153 50.2117 24.0687C49.4809 23.3378 48.2438 23.2534 47.2928 23.0513C46.2461 22.8289 45.1479 22.4639 44.0791 22.3667C43.5671 22.3202 43.1271 22.1392 42.5959 22.2336C42.3935 22.2696 41.6014 22.3667 42.1965 22.3667" stroke="white" stroke-width="3" stroke-linecap="round"/>
<path d="M48.358 25.6182C46.9367 25.8766 45.4341 27.0629 44.1174 27.6719C43.2523 28.072 42.6461 28.6781 42.2824 29.5735C42.0702 30.0957 41.5551 31.1911 41.8165 31.7793C42.1275 32.4791 44.2946 32.3006 44.84 32.2832C45.9323 32.2486 48.1678 31.7172 48.1678 30.2295C48.1678 29.3084 48.1353 28.4287 48.1868 27.5007C48.2248 26.8178 49.4367 26.8162 49.8983 26.8162" stroke="white" stroke-width="3" stroke-linecap="round"/>
<path d="M50.583 27.8424C50.6218 30.0148 50.8463 32.9893 53.4164 33.5852C54.663 33.8743 55.2039 31.6748 55.2039 30.7899C55.2039 29.6116 54.8221 27.707 53.5685 27.2339C52.7416 26.9219 51.6215 28.5852 51.4387 27.6713" stroke="white" stroke-width="3" stroke-linecap="round"/>
<path d="M50.0693 24.0781C51.9892 22.1582 53.7826 19.7025 56.5443 19.0484C58.0726 18.6864 58.3419 20.4333 58.0941 21.6726C57.9299 22.4932 56.3249 22.8142 55.7171 23.0893C54.5721 23.6075 53.6305 24.3214 52.6365 25.0669C52.3688 25.2677 50.66 26.3656 51.2673 25.9607" stroke="white" stroke-width="3" stroke-linecap="round"/>
<path d="M55.2041 21.5107C54.8555 21.7722 54.2803 22.0242 53.835 22.0242" stroke="white" stroke-width="3" stroke-linecap="round"/>
<path d="M49.6637 24.9308C49.7521 24.4667 50.8423 22.5246 50.8423 23.8177C50.8423 24.2494 51.1816 26.3052 50.253 25.5092C49.9355 25.2371 49.7484 24.88 49.871 24.4507C49.8977 24.3572 49.7765 25.6929 49.6637 26.0876C49.4333 26.8939 46.3115 24.5147 48.2887 24.7344C48.7255 24.7829 48.7366 25.8257 48.4851 25.8257C47.9083 25.8257 48.7896 23.5581 48.878 23.3594" stroke="#FFB800" stroke-width="3" stroke-linecap="round"/>
<path d="M81.3252 39.6989C82.4013 39.4299 84.0993 38.2815 83.6356 40.5071C83.6041 40.6584 83.1509 41.8477 82.9986 41.8477C82.8307 41.8477 82.5737 40.9474 82.4376 40.8114C81.8614 40.2352 82.3817 39.8839 82.8845 39.5183C84.0492 38.6712 85.5223 38.4384 86.8398 37.9114C87.455 37.6654 88.0677 37.4111 88.6844 37.1698C88.9938 37.0487 88.8555 38.2318 88.8555 38.3488C88.8555 38.7874 89.0499 39.6432 88.4847 39.7845C87.7694 39.9633 86.926 39.9468 86.1933 40.0032C85.2022 40.0794 84.2017 40.0412 83.2078 40.0412" stroke="white" stroke-width="3" stroke-linecap="round"/>
<path d="M80.6398 40.2119C77.614 41.1429 74.4435 42.0206 72.539 44.8138C72.4332 44.969 71.9014 46.0017 72.0161 46.1164C72.3623 46.4626 73.745 46.4803 74.1554 46.5062C75.1864 46.5711 76.266 46.7048 76.4943 45.5174C76.617 44.8794 76.649 44.285 76.713 43.6443C76.8008 42.7662 78.283 41.1687 79.0995 40.8965" stroke="white" stroke-width="3" stroke-linecap="round"/>
<path d="M79.6133 41.7529C79.8617 42.9121 80.7088 44.136 81.3152 45.1283C81.8556 46.0125 82.4446 46.7706 83.4355 47.1535C84.4617 47.55 85.1051 45.0027 85.0804 44.3961C85.0516 43.6913 84.9196 42.6658 84.025 42.6086C83.8457 42.5972 82.7316 42.705 82.7889 42.4946C83.1438 41.1932 81.9386 41.33 81.1536 41.0684" stroke="white" stroke-width="3" stroke-linecap="round"/>
<path d="M79.6133 40.2124C79.4914 38.7499 78.2431 37.9589 76.913 37.7783C76.3489 37.7017 75.345 37.829 74.8593 37.4741C73.6175 36.5666 74.4129 33.6694 75.1636 32.7201C75.7475 31.9815 75.8211 32.134 76.3235 32.7771C77.153 33.8388 78.2226 34.6288 79.1949 35.544C79.5407 35.8694 79.7882 36.1874 79.7464 36.6754C79.6685 37.5847 79.5781 38.4796 79.6133 39.3947C79.642 40.1416 80.0556 38.838 80.1267 38.6721" stroke="white" stroke-width="3" stroke-linecap="round"/>
<path d="M80.127 38.6714C80.9134 37.6228 81.1889 36.2448 81.5817 35.0203C81.8179 34.2839 82.0068 33.1078 82.523 32.5102C83.0157 31.9397 83.5694 31.8382 84.2154 32.2535C84.9352 32.7162 83.5775 34.5207 83.3882 34.9823C83.0423 35.8254 82.6519 37.0021 82.0095 37.6445" stroke="white" stroke-width="3" stroke-linecap="round"/>
<path d="M81.0956 39.25C81.6724 39.0725 83.0558 37.543 83.0817 38.9445C83.1105 40.4965 82.5497 40.7159 81.7285 39.6211C81.3247 39.0826 82.2144 38.4357 82.0341 39.5774C81.9763 39.9432 81.8722 40.8111 81.4448 40.2649C81.2604 40.0293 80.2423 38.672 80.3535 38.7044C80.5622 38.7652 81.3647 39.3348 80.7791 39.1191C80.2106 38.9096 80.025 38.4153 79.917 37.875" stroke="#FFB800" stroke-width="3" stroke-linecap="round"/>
</svg>
