<svg width="56" height="44" viewBox="0 0 56 44" fill="none" xmlns="http://www.w3.org/2000/svg">
<path d="M1 14.7853C7.16328 11.1434 13.532 7.90058 19.9431 4.71985C22.3221 3.53959 25.0925 1.65855 27.7267 1" stroke="#61FF00" stroke-width="2" stroke-linecap="round"/>
<path d="M14.2231 1C13.2514 9.63683 13.1163 18.1664 13.0977 26.8514C13.0874 31.6915 13.2149 36.7304 12.8164 41.512" stroke="#61FF00" stroke-width="2" stroke-linecap="round"/>
<path d="M19.2873 29.6959C18.9391 30.6246 18.2211 31.3983 17.7869 32.2904C16.946 34.0182 16.5495 35.9968 16.7241 37.9171C17.2401 43.5936 22.3373 34.0836 22.8822 32.7281C23.6599 30.7932 23.9781 27.6003 21.2567 29.4146" stroke="#61FF00" stroke-width="2" stroke-linecap="round"/>
<path d="M30.5401 24.0693C28.8794 29.3741 28.2126 34.9392 27.3516 40.4179C27.351 40.4219 27.1641 42.9138 27.1641 41.7933" stroke="#61FF00" stroke-width="2" stroke-linecap="round"/>
<path d="M27.4453 35.323C28.4142 33.3852 29.3157 31.1263 30.8213 29.54C31.0345 29.3154 33.0038 27.6786 33.072 28.6335C33.2628 31.3053 33.1417 33.798 33.072 36.4483C33.0237 38.2829 32.5093 39.997 32.5093 41.7937" stroke="#61FF00" stroke-width="2" stroke-linecap="round"/>
<path d="M33.916 32.5091C34.5092 31.5898 35.8406 27.8936 37.0107 27.7265C37.9989 27.5853 38.6034 27.6985 38.6831 28.7737C38.85 31.028 38.6987 33.3413 38.6987 35.6038C38.6987 37.1754 38.6758 38.6637 38.433 40.1208C38.311 40.8526 37.5535 42.9516 38.4173 41.5118" stroke="#61FF00" stroke-width="2" stroke-linecap="round"/>
<path d="M46.295 28.8521C43.7273 29.8983 39.4297 40.2644 44.2163 39.8085C46.2536 39.6145 49.7617 39.433 51.0152 37.511C52.582 35.1086 53.972 31.2206 54.1724 28.4145C54.5425 23.2327 47.5473 29.0066 46.295 30.2588" stroke="#61FF00" stroke-width="2" stroke-linecap="round"/>
</svg>
