<svg width="24" height="20" viewBox="0 0 24 20" fill="none" xmlns="http://www.w3.org/2000/svg">
<path fill-rule="evenodd" clip-rule="evenodd" d="M20.2263 18.4787L23.9752 1.91436C24.1585 1.1048 23.2944 0.428346 22.4586 0.720748L22.0615 0.862584L0.506652 8.62869C0.354358 8.6767 0.222192 8.77368 0.130702 8.90455C0.0392114 9.03542 -0.00647626 9.19285 0.000740631 9.35237C0.00795753 9.51189 0.0676747 9.66456 0.170609 9.78663C0.273543 9.90871 0.413927 9.99336 0.569933 10.0274L6.14957 11.5549L7.19043 14.6098L8.2313 17.6648C8.29132 17.8144 8.38694 17.9471 8.50986 18.0513C8.63277 18.1556 8.77927 18.2283 8.93664 18.2631C9.09402 18.2979 9.25752 18.2938 9.41295 18.2512C9.56838 18.2085 9.71106 18.1286 9.8286 18.0183L12.7112 15.2928L18.3715 19.1333C19.0633 19.6069 20.0496 19.2555 20.2263 18.4787ZM9.96888 12.365L19.7076 4.40464C19.952 4.20388 19.6683 3.85475 19.3912 4.01622L17.484 5.10727L7.35036 10.916C7.24932 10.9699 7.17038 11.0575 7.12731 11.1635C7.08425 11.2696 7.07978 11.3874 7.11469 11.4965L7.93298 13.9295L8.72508 16.308C8.72769 16.3369 8.74168 16.3637 8.76398 16.3823C8.78629 16.4009 8.81507 16.4099 8.84401 16.4073C8.87294 16.4047 8.89966 16.3907 8.91828 16.3684C8.9369 16.3461 8.9459 16.3173 8.94329 16.2884L9.22478 13.9099L9.32734 13.0632C9.34425 12.9359 9.40997 12.8201 9.51064 12.7403L9.96888 12.365Z" fill="white"/>
</svg>
