<svg width="272" height="104" viewBox="0 0 272 104" fill="none" xmlns="http://www.w3.org/2000/svg">
<path d="M1.14887 44.232C0.702973 44.5565 0.605497 45.182 0.931147 45.6291C1.2568 46.0761 1.88226 46.1754 2.32815 45.8509L1.14887 44.232ZM265.384 103.67C265.869 103.935 266.476 103.758 266.74 103.274L271.042 95.3791C271.306 94.8947 271.127 94.2868 270.642 94.0213C270.157 93.7558 269.55 93.9333 269.286 94.4177L265.462 101.435L258.437 97.5892C257.952 97.3237 257.345 97.5012 257.081 97.9856C256.817 98.4701 256.996 99.078 257.481 99.3435L265.384 103.67ZM2.32815 45.8509C4.30219 44.4141 6.27726 43.0165 8.25288 41.6576L7.11693 40.0081C5.12662 41.377 3.1371 42.7849 1.14887 44.232L2.32815 45.8509ZM20.3353 33.8274C24.5061 31.2879 28.675 28.9167 32.8376 26.7091L31.8972 24.941C27.6994 27.1673 23.4962 29.558 19.2923 32.1176L20.3353 33.8274ZM45.7379 20.3755C50.1963 18.3602 54.6421 16.5291 59.0696 14.8765L58.366 13.0019C53.8961 14.6704 49.409 16.5186 44.9103 18.552L45.7379 20.3755ZM72.7322 10.3186C77.4062 8.94371 82.0529 7.76531 86.6655 6.77664L86.2414 4.82048C81.5795 5.8197 76.8845 7.0104 72.1632 8.39917L72.7322 10.3186ZM100.841 4.31316C105.669 3.67018 110.451 3.2344 115.179 2.99775L115.073 0.999761C110.29 1.23917 105.454 1.67998 100.571 2.33014L100.841 4.31316ZM129.545 2.88933C134.406 3.06166 139.196 3.44637 143.907 4.03404L144.149 2.04894C139.379 1.45392 134.53 1.06451 129.611 0.8901L129.545 2.88933ZM158.074 6.45766C162.813 7.49334 167.454 8.73973 171.988 10.1861L172.591 8.28034C167.997 6.81489 163.295 5.55232 158.496 4.50332L158.074 6.45766ZM185.469 15.2055C189.914 17.1082 194.233 19.2127 198.413 21.5074L199.371 19.7541C195.134 17.428 190.756 15.2949 186.251 13.3665L185.469 15.2055ZM210.672 29.0498C214.647 31.7775 218.465 34.6916 222.112 37.7794L223.401 36.2538C219.702 33.1221 215.831 30.1669 211.8 27.4011L210.672 29.0498ZM232.608 47.6331C235.939 51.1 239.082 54.732 242.024 58.5161L243.601 57.2906C240.615 53.451 237.426 49.766 234.048 46.249L232.608 47.6331ZM250.244 70.3277C252.767 74.3979 255.076 78.6068 257.159 82.9416L258.961 82.079C256.847 77.6793 254.503 73.4075 251.942 69.2768L250.244 70.3277ZM262.683 96.2243C263.482 98.4802 264.223 100.764 264.903 103.073L266.821 102.512C266.13 100.168 265.379 97.8508 264.568 95.561L262.683 96.2243ZM1.14887 44.232C0.702973 44.5565 0.605497 45.182 0.931147 45.6291C1.2568 46.0761 1.88226 46.1754 2.32815 45.8509L1.14887 44.232ZM265.384 103.67C265.869 103.935 266.476 103.758 266.74 103.274L271.042 95.3791C271.306 94.8947 271.127 94.2868 270.642 94.0213C270.157 93.7558 269.55 93.9333 269.286 94.4177L265.462 101.435L258.437 97.5892C257.952 97.3237 257.345 97.5012 257.081 97.9856C256.817 98.4701 256.996 99.078 257.481 99.3435L265.384 103.67ZM2.32815 45.8509C4.30219 44.4141 6.27726 43.0165 8.25288 41.6576L7.11693 40.0081C5.12662 41.377 3.1371 42.7849 1.14887 44.232L2.32815 45.8509ZM20.3353 33.8274C24.5061 31.2879 28.675 28.9167 32.8376 26.7091L31.8972 24.941C27.6994 27.1673 23.4962 29.558 19.2923 32.1176L20.3353 33.8274ZM45.7379 20.3755C50.1963 18.3602 54.6421 16.5291 59.0696 14.8765L58.366 13.0019C53.8961 14.6704 49.409 16.5186 44.9103 18.552L45.7379 20.3755ZM72.7322 10.3186C77.4062 8.94371 82.0529 7.76531 86.6655 6.77664L86.2414 4.82048C81.5795 5.8197 76.8845 7.0104 72.1632 8.39917L72.7322 10.3186ZM100.841 4.31316C105.669 3.67018 110.451 3.2344 115.179 2.99775L115.073 0.999761C110.29 1.23917 105.454 1.67998 100.571 2.33014L100.841 4.31316ZM129.545 2.88933C134.406 3.06166 139.196 3.44637 143.907 4.03404L144.149 2.04894C139.379 1.45392 134.53 1.06451 129.611 0.8901L129.545 2.88933ZM158.074 6.45766C162.813 7.49334 167.454 8.73973 171.988 10.1861L172.591 8.28034C167.997 6.81489 163.295 5.55232 158.496 4.50332L158.074 6.45766ZM185.469 15.2055C189.914 17.1082 194.233 19.2127 198.413 21.5074L199.371 19.7541C195.134 17.428 190.756 15.2949 186.251 13.3665L185.469 15.2055ZM210.672 29.0498C214.647 31.7775 218.465 34.6916 222.112 37.7794L223.401 36.2538C219.702 33.1221 215.831 30.1669 211.8 27.4011L210.672 29.0498ZM232.608 47.6331C235.939 51.1 239.082 54.732 242.024 58.5161L243.601 57.2906C240.615 53.451 237.426 49.766 234.048 46.249L232.608 47.6331ZM250.244 70.3277C252.767 74.3979 255.076 78.6068 257.159 82.9416L258.961 82.079C256.847 77.6793 254.503 73.4075 251.942 69.2768L250.244 70.3277ZM262.683 96.2243C263.482 98.4802 264.223 100.764 264.903 103.073L266.821 102.512C266.13 100.168 265.379 97.8508 264.568 95.561L262.683 96.2243Z" fill="#FF8DFA"/>
</svg>
