<svg width="1240" height="202" viewBox="0 0 1240 202" fill="none" xmlns="http://www.w3.org/2000/svg">
<path d="M1219.69 173.17H1240V201.317H1219.69C1193.28 201.317 1171.52 183.327 1171.52 160.983V76.5424H1163.68V52.458H1171.52V4.28906H1203.73V52.458H1235.94V76.5424H1211.27C1208.37 76.5424 1205.76 75.3817 1203.73 73.6407L1197.34 66.9667L1194.15 70.1586L1200.54 76.5424C1202.57 78.5737 1203.73 81.1852 1203.73 84.087V160.983C1203.73 167.657 1210.98 173.17 1219.69 173.17Z" fill="white"/>
<path d="M1116.8 52.4521H1149.01V197.249H1116.8V124.996C1116.8 98.2996 1092.71 76.5365 1062.53 76.5365C1032.65 76.5365 1008.27 98.2996 1008.27 124.996C1008.27 151.401 1024.52 173.165 1044.54 173.165C1064.56 173.165 1080.81 155.174 1080.81 132.83H1112.73C1112.73 170.553 1082.27 201.311 1044.54 201.311C1006.82 201.311 976.352 167.071 976.352 124.996C976.352 82.6302 1014.94 48.3896 1062.53 48.3896C1076.17 48.3896 1089.23 51.2914 1100.55 56.2244C1108.09 59.4163 1113.89 65.5099 1117.38 72.7643L1122.89 85.5319L1126.95 83.7909L1119.7 67.5411C1117.96 63.4787 1116.8 59.1261 1116.8 54.4833V52.4521Z" fill="white"/>
<path d="M878.94 173.159C898.091 173.159 915.792 167.065 929.43 156.909H972.376C952.064 183.605 917.823 201.306 878.94 201.306C816.843 201.306 766.643 156.329 766.643 100.615C766.643 45.1919 816.843 0.214844 878.94 0.214844C917.823 0.214844 952.064 17.6253 972.376 44.3213H929.43C915.792 34.4554 898.091 28.3617 878.94 28.3617C834.543 28.3617 798.562 60.8613 798.562 100.615C798.562 140.659 834.543 173.159 878.94 173.159Z" fill="white"/>
<path d="M673.46 48.3896C721.339 48.3896 759.932 82.6302 759.932 124.996C759.932 167.071 721.339 201.311 673.46 201.311C625.872 201.311 587.278 167.071 587.278 124.996C587.278 82.6302 625.872 48.3896 673.46 48.3896ZM673.46 173.165C703.638 173.165 727.723 151.401 727.723 124.996C727.723 98.2996 703.638 76.5365 673.46 76.5365C643.572 76.5365 619.198 98.2996 619.198 124.996C619.198 151.401 643.572 173.165 673.46 173.165Z" fill="white"/>
<path d="M507.602 48.3896C545.325 48.3896 576.083 79.1481 576.083 116.871V197.249H543.874V116.871C543.874 94.5273 527.624 76.5365 507.602 76.5365C487.58 76.5365 471.33 98.2996 471.33 124.996V197.249H439.411V116.871C439.411 94.5273 423.161 76.5365 403.139 76.5365C383.117 76.5365 366.867 98.2996 366.867 124.996V197.249H334.948V52.4521H366.577C366.287 54.7735 365.997 56.8047 365.417 58.8359L357.001 84.0811L361.064 85.2418L365.707 71.3134C368.899 61.1573 377.314 53.3226 387.47 50.4209C392.693 49.2602 397.916 48.3896 403.139 48.3896C424.612 48.3896 444.054 58.5457 456.531 74.2152C469.009 58.5457 487.29 48.3896 507.602 48.3896Z" fill="white"/>
<path d="M234.799 48.3896C282.678 48.3896 321.271 82.6302 321.271 124.996C321.271 167.071 282.678 201.311 234.799 201.311C187.21 201.311 148.617 167.071 148.617 124.996C148.617 82.6302 187.21 48.3896 234.799 48.3896ZM234.799 173.165C264.977 173.165 289.062 151.401 289.062 124.996C289.062 98.2996 264.977 76.5365 234.799 76.5365C204.911 76.5365 180.536 98.2996 180.536 124.996C180.536 151.401 204.911 173.165 234.799 173.165Z" fill="white"/>
<path d="M0 4.28906H168.591V32.436H100.4V197.255H68.1909V32.436H0V4.28906Z" fill="white"/>
</svg>
