<svg width="138" height="40" viewBox="0 0 138 40" fill="none" xmlns="http://www.w3.org/2000/svg">
<path fill-rule="evenodd" clip-rule="evenodd" d="M61.615 12.9725L62.7737 16.1205H65.4196L60.2051 2.60156H57.8104L52.6152 16.1205H55.2418L56.4005 12.9725H61.615ZM60.8425 10.8095H57.2117L59.0271 5.86542L60.8425 10.8095Z" fill="white"/>
<path fill-rule="evenodd" clip-rule="evenodd" d="M66.7291 6.38687V20.0603H69.0852V15.0583C69.626 15.8115 70.6689 16.275 71.847 16.275C74.7052 16.275 76.54 14.2279 76.54 11.2537C76.54 8.27952 74.8211 6.23236 72.0208 6.23236C70.7268 6.23236 69.6646 6.77312 69.0852 7.60357V6.38687H66.7291ZM74.1838 11.2537C74.1838 13.0498 73.1409 14.2279 71.5766 14.2279C69.9736 14.2279 68.9307 13.0498 68.9307 11.2537C68.9307 9.4576 69.9736 8.27952 71.5766 8.27952C73.1409 8.27952 74.1838 9.4576 74.1838 11.2537Z" fill="white"/>
<path fill-rule="evenodd" clip-rule="evenodd" d="M87.1553 12.876H84.8378C84.5867 13.803 83.7949 14.3051 82.5782 14.3051C81.0718 14.3051 80.0675 13.3008 79.8937 11.7365H87.0781C87.0974 11.5434 87.1167 11.2537 87.1167 10.9254C87.1167 8.60784 85.6489 6.23236 82.3851 6.23236C79.1985 6.23236 77.6148 8.64646 77.6148 11.2151C77.6148 13.7643 79.3916 16.275 82.5782 16.275C84.973 16.275 86.7884 14.9424 87.1553 12.876ZM79.9517 10.1722C80.2027 8.7044 81.0525 8.00914 82.3851 8.00914C83.7949 8.00914 84.6447 8.93615 84.7412 10.1722H79.9517Z" fill="white"/>
<path d="M56.7675 24.4811V35.7984H59.3168V24.4811H63.3917V22.2794H52.6732V24.4811H56.7675Z" fill="white"/>
<path fill-rule="evenodd" clip-rule="evenodd" d="M71.8786 32.5538H69.5611C69.31 33.4808 68.5182 33.983 67.3015 33.983C65.7951 33.983 64.7909 32.9787 64.617 31.4144H71.8014C71.8207 31.2212 71.84 30.9315 71.84 30.6032C71.84 28.2857 70.3722 25.9102 67.1084 25.9102C63.9218 25.9102 62.3381 28.3243 62.3381 30.8929C62.3381 33.4422 64.1149 35.9529 67.3015 35.9529C69.6963 35.9529 71.5117 34.6203 71.8786 32.5538ZM64.675 29.85C64.9261 28.3823 65.7758 27.687 67.1084 27.687C68.5182 27.687 69.368 28.614 69.4645 29.85H64.675Z" fill="white"/>
<path d="M77.9584 28.0539H79.4841V26.0647H78.3446C77.0893 26.0647 76.3361 26.5475 75.8533 27.7836V26.0647H73.4778V35.7984H75.8533V31.2019C75.8533 29.3479 76.452 28.0539 77.9584 28.0539Z" fill="white"/>
<path d="M80.8521 26.0647V35.7984H83.2276V30.217C83.2276 28.8458 84.0194 27.9381 85.2747 27.9381C86.4142 27.9381 87.1288 28.8458 87.1288 30.217V35.7984H89.4849V30.217C89.4849 28.8458 90.2767 27.9381 91.5514 27.9381C92.6908 27.9381 93.4054 28.8458 93.4054 30.217V35.7984H95.7616V29.5024C95.7616 27.4359 94.4097 25.9102 92.3046 25.9102C90.7596 25.9102 89.5236 26.76 89.0794 27.7642C88.6545 26.5669 87.5923 25.9102 86.0473 25.9102C84.6761 25.9102 83.7104 26.6055 83.2276 27.5904V26.0647H80.8521Z" fill="white"/>
<path d="M100.336 21.8932H97.7862V24.539H100.336V21.8932Z" fill="white"/>
<path d="M97.8828 26.0647V35.7984H100.258V26.0647H97.8828Z" fill="white"/>
<path d="M102.39 26.0647V35.7984H104.766V30.4874C104.766 29.0582 105.693 28.0153 107.025 28.0153C108.242 28.0153 109.053 28.9423 109.053 30.2749V35.7984H111.429V29.7728C111.429 27.4939 110 25.9102 107.798 25.9102C106.407 25.9102 105.307 26.5089 104.766 27.5711V26.0647H102.39Z" fill="white"/>
<path fill-rule="evenodd" clip-rule="evenodd" d="M113.169 30.9315C113.169 33.9057 114.869 35.9529 117.804 35.9529C119.021 35.9529 120.141 35.4314 120.605 34.6589V35.7984H122.98V26.0647H120.605V27.1656C120.045 26.4124 118.982 25.9102 117.766 25.9102C114.869 25.9102 113.169 27.9574 113.169 30.9315ZM120.779 30.9315C120.779 32.7276 119.736 33.9057 118.133 33.9057C116.568 33.9057 115.525 32.7276 115.525 30.9315C115.525 29.1355 116.568 27.9574 118.133 27.9574C119.736 27.9574 120.779 29.1355 120.779 30.9315Z" fill="white"/>
<path d="M125.384 21.8932V35.7984H127.74V21.8932H125.384Z" fill="white"/>
<path fill-rule="evenodd" clip-rule="evenodd" d="M21.6555 17.75H12.168L13.4485 14L22.9356 14.001L21.6555 17.75Z" fill="#63EA71"/>
<path fill-rule="evenodd" clip-rule="evenodd" d="M10.7998 21.75H20.2873L21.6531 17.75H12.1657L10.7998 21.75Z" fill="#27B079"/>
<path fill-rule="evenodd" clip-rule="evenodd" d="M20.2875 21.75L19.007 25.5H9.51953L10.8 21.75H20.2875Z" fill="#08493C"/>
<path d="M5.5935 37H15.081L19.0078 25.5H9.52033L5.5935 37Z" fill="white"/>
<path d="M0.0329571 25.5H9.52044L13.4473 14H3.95978L0.0329571 25.5Z" fill="white"/>
<path d="M22.9346 14.001L13.4475 14L17.3743 2.5H28.4949L40.2754 37H30.7879L26.8611 25.5H19.0081L22.9346 14.001Z" fill="white"/>
</svg>
