<svg width="73" height="28" fill="none" xmlns="http://www.w3.org/2000/svg"><g clip-path="url('#clip0_363_1370')"><mask id="path-1-inside-1_363_1370" fill="#fff"><path d="M24.543 12.864a10.526 10.526 0 0 0-2.514-3.49l-.883-.808a.245.245 0 0 0-.394.1l-.394 1.13c-.246.708-.698 1.432-1.338 2.144a.19.19 0 0 1-.185.054.168.168 0 0 1-.07-.04.178.178 0 0 1-.06-.145c.112-1.823-.434-3.88-1.629-6.118-.989-1.86-2.363-3.31-4.08-4.322L11.745.633a.244.244 0 0 0-.364.221l.067 1.454c.046.993-.07 1.872-.343 2.602A8.635 8.635 0 0 1 9.68 7.378a8.96 8.96 0 0 1-1.44 1.396 10.682 10.682 0 0 0-3.043 3.68 10.521 10.521 0 0 0-.257 8.793 10.658 10.658 0 0 0 6.867 6.038c.958.275 1.952.414 2.968.414 1.44 0 2.836-.279 4.152-.827a10.575 10.575 0 0 0 3.394-2.263 10.483 10.483 0 0 0 3.13-7.478c0-1.478-.304-2.914-.907-4.268Z"/></mask><path d="M24.543 12.864a10.526 10.526 0 0 0-2.514-3.49l-.883-.808a.245.245 0 0 0-.394.1l-.394 1.13c-.246.708-.698 1.432-1.338 2.144a.19.19 0 0 1-.185.054.168.168 0 0 1-.07-.04.178.178 0 0 1-.06-.145c.112-1.823-.434-3.88-1.629-6.118-.989-1.86-2.363-3.31-4.08-4.322L11.745.633a.244.244 0 0 0-.364.221l.067 1.454c.046.993-.07 1.872-.343 2.602A8.635 8.635 0 0 1 9.68 7.378a8.96 8.96 0 0 1-1.44 1.396 10.682 10.682 0 0 0-3.043 3.68 10.521 10.521 0 0 0-.257 8.793 10.658 10.658 0 0 0 6.867 6.038c.958.275 1.952.414 2.968.414 1.44 0 2.836-.279 4.152-.827a10.575 10.575 0 0 0 3.394-2.263 10.483 10.483 0 0 0 3.13-7.478c0-1.478-.304-2.914-.907-4.268Z" fill="#1F1F1F" stroke="#1F1F1F" stroke-width="1.656" mask="url('#path-1-inside-1_363_1370')"/><mask id="path-2-inside-2_363_1370" fill="#fff"><path d="M2.001 16.529c0-1.621.377-3.22 1.098-4.674l2.09.599a10.522 10.522 0 0 0-1.098 4.673L2 16.53Z"/></mask><path d="M2.001 16.529c0-1.621.377-3.22 1.098-4.674l2.09.599a10.522 10.522 0 0 0-1.098 4.673L2 16.53Z" fill="#1F1F1F" stroke="#1F1F1F" stroke-width="1.656" stroke-linejoin="round" mask="url('#path-2-inside-2_363_1370')"/><mask id="path-3-inside-3_363_1370" fill="#fff"><path d="M3.098 11.856a10.682 10.682 0 0 1 3.042-3.68l2.09.598a10.683 10.683 0 0 0-3.043 3.68l-2.09-.598Z"/></mask><path d="M3.098 11.856a10.682 10.682 0 0 1 3.042-3.68l2.09.598a10.683 10.683 0 0 0-3.043 3.68l-2.09-.598Z" fill="#1F1F1F" stroke="#1F1F1F" stroke-width="1.656" stroke-linejoin="round" mask="url('#path-3-inside-3_363_1370')"/><mask id="path-4-inside-4_363_1370" fill="#fff"><path d="M2.84 20.649a10.415 10.415 0 0 1-.84-4.12l2.09.599c0 1.43.282 2.814.84 4.119l-2.09-.598Z"/></mask><path d="M2.84 20.649a10.415 10.415 0 0 1-.84-4.12l2.09.599c0 1.43.282 2.814.84 4.119l-2.09-.598Z" fill="#1F1F1F" stroke="#1F1F1F" stroke-width="1.656" stroke-linejoin="round" mask="url('#path-4-inside-4_363_1370')"/><mask id="path-5-inside-5_363_1370" fill="#fff"><path d="M6.15 8.175a8.96 8.96 0 0 0 1.44-1.397l2.09.599c-.427.518-.91.986-1.44 1.396l-2.09-.598Z"/></mask><path d="M6.15 8.175a8.96 8.96 0 0 0 1.44-1.397l2.09.599c-.427.518-.91.986-1.44 1.396l-2.09-.598Z" fill="#1F1F1F" stroke="#1F1F1F" stroke-width="1.656" stroke-linejoin="round" mask="url('#path-5-inside-5_363_1370')"/><mask id="path-6-inside-6_363_1370" fill="#fff"><path d="M9.287.255A.244.244 0 0 1 9.595.01l2.09.598a.244.244 0 0 0-.308.246L9.287.255Z"/></mask><path d="M9.287.255A.244.244 0 0 1 9.595.01l2.09.598a.244.244 0 0 0-.308.246L9.287.255Z" fill="#1F1F1F" stroke="#1F1F1F" stroke-width="1.656" stroke-linejoin="round" mask="url('#path-6-inside-6_363_1370')"/><mask id="path-7-inside-7_363_1370" fill="#fff"><path d="M9.355 1.709 9.288.255l2.09.598.066 1.454-2.09-.598Z"/></mask><path d="M9.355 1.709 9.288.255l2.09.598.066 1.454-2.09-.598Z" fill="#1F1F1F" stroke="#1F1F1F" stroke-width="1.656" stroke-linejoin="round" mask="url('#path-7-inside-7_363_1370')"/><mask id="path-8-inside-8_363_1370" fill="#fff"><path d="M9.596.01a.24.24 0 0 1 .056.024l2.09.598a.241.241 0 0 0-.057-.024L9.595.01Z"/></mask><path d="M9.596.01a.24.24 0 0 1 .056.024l2.09.598a.241.241 0 0 0-.057-.024L9.595.01Z" fill="#1F1F1F" stroke="#1F1F1F" stroke-width="1.656" stroke-linejoin="round" mask="url('#path-8-inside-8_363_1370')"/><mask id="path-9-inside-9_363_1370" fill="#fff"><path d="M7.588 6.78a8.635 8.635 0 0 0 1.425-2.47l2.09.599a8.635 8.635 0 0 1-1.425 2.469l-2.09-.599Z"/></mask><path d="M7.588 6.78a8.635 8.635 0 0 0 1.425-2.47l2.09.599a8.635 8.635 0 0 1-1.425 2.469l-2.09-.599Z" fill="#1F1F1F" stroke="#1F1F1F" stroke-width="1.656" stroke-linejoin="round" mask="url('#path-9-inside-9_363_1370')"/><mask id="path-10-inside-10_363_1370" fill="#fff"><path d="M9.003 4.312c.273-.73.388-1.609.343-2.602l2.09.598c.045.994-.07 1.872-.343 2.602l-2.09-.598Z"/></mask><path d="M9.003 4.312c.273-.73.388-1.609.343-2.602l2.09.598c.045.994-.07 1.872-.343 2.602l-2.09-.598Z" fill="#1F1F1F" stroke="#1F1F1F" stroke-width="1.656" stroke-linejoin="round" mask="url('#path-10-inside-10_363_1370')"/><mask id="path-11-inside-11_363_1370" fill="#fff"><path d="m9.646.034 1.252.736 2.09.599-1.253-.736-2.09-.599Z"/></mask><path d="m9.646.034 1.252.736 2.09.599-1.253-.736-2.09-.599Z" fill="#1F1F1F" stroke="#1F1F1F" stroke-width="1.656" stroke-linejoin="round" mask="url('#path-11-inside-11_363_1370')"/><mask id="path-12-inside-12_363_1370" fill="#fff"><path d="M5.134 24.008a10.583 10.583 0 0 1-2.29-3.36l2.09.599a10.582 10.582 0 0 0 2.29 3.359l-2.09-.599Z"/></mask><path d="M5.134 24.008a10.583 10.583 0 0 1-2.29-3.36l2.09.599a10.582 10.582 0 0 0 2.29 3.359l-2.09-.599Z" fill="#1F1F1F" stroke="#1F1F1F" stroke-width="1.656" stroke-linejoin="round" mask="url('#path-12-inside-12_363_1370')"/><mask id="path-13-inside-13_363_1370" fill="#fff"><path d="M10.9.77c1.716 1.012 3.09 2.463 4.079 4.323l2.09.598c-.99-1.86-2.363-3.31-4.08-4.322L10.9.77Z"/></mask><path d="M10.9.77c1.716 1.012 3.09 2.463 4.079 4.323l2.09.598c-.99-1.86-2.363-3.31-4.08-4.322L10.9.77Z" fill="#1F1F1F" stroke="#1F1F1F" stroke-width="1.656" stroke-linejoin="round" mask="url('#path-13-inside-13_363_1370')"/><mask id="path-14-inside-14_363_1370" fill="#fff"><path d="M8.538 26.27a10.656 10.656 0 0 1-3.393-2.263l2.09.598c.982.97 2.122 1.733 3.393 2.263l-2.09-.599Z"/></mask><path d="M8.538 26.27a10.656 10.656 0 0 1-3.393-2.263l2.09.598c.982.97 2.122 1.733 3.393 2.263l-2.09-.599Z" fill="#1F1F1F" stroke="#1F1F1F" stroke-width="1.656" stroke-linejoin="round" mask="url('#path-14-inside-14_363_1370')"/><mask id="path-15-inside-15_363_1370" fill="#fff"><path d="M9.712 26.687c-.4-.115-.795-.254-1.183-.417l2.09.599c.388.162.783.301 1.183.416l-2.09-.598Z"/></mask><path d="M9.712 26.687c-.4-.115-.795-.254-1.183-.417l2.09.599c.388.162.783.301 1.183.416l-2.09-.598Z" fill="#1F1F1F" stroke="#1F1F1F" stroke-width="1.656" stroke-linejoin="round" mask="url('#path-15-inside-15_363_1370')"/><mask id="path-16-inside-16_363_1370" fill="#fff"><path d="M14.975 5.093c1.194 2.238 1.74 4.295 1.628 6.118l2.09.598c.112-1.823-.434-3.88-1.629-6.118l-2.09-.598Z"/></mask><path d="M14.975 5.093c1.194 2.238 1.74 4.295 1.628 6.118l2.09.598c.112-1.823-.434-3.88-1.629-6.118l-2.09-.598Z" fill="#1F1F1F" stroke="#1F1F1F" stroke-width="1.656" stroke-linejoin="round" mask="url('#path-16-inside-16_363_1370')"/><mask id="path-17-inside-17_363_1370" fill="#fff"><path d="M12.686 27.098c-1.013 0-2.004-.137-2.96-.41l2.08.595c.96.275 1.953.414 2.97.414l-2.09-.599Z"/></mask><path d="M12.686 27.098c-1.013 0-2.004-.137-2.96-.41l2.08.595c.96.275 1.953.414 2.97.414l-2.09-.599Z" fill="#1F1F1F" stroke="#1F1F1F" stroke-width="1.656" stroke-linejoin="round" mask="url('#path-17-inside-17_363_1370')"/><mask id="path-18-inside-18_363_1370" fill="#fff"><path d="M16.61 11.21a.178.178 0 0 0 .061.145l2.09.599a.178.178 0 0 1-.06-.146l-2.09-.598Z"/></mask><path d="M16.61 11.21a.178.178 0 0 0 .061.145l2.09.599a.178.178 0 0 1-.06-.146l-2.09-.598Z" fill="#1F1F1F" stroke="#1F1F1F" stroke-width="1.656" stroke-linejoin="round" mask="url('#path-18-inside-18_363_1370')"/><mask id="path-19-inside-19_363_1370" fill="#fff"><path d="M16.668 11.356a.169.169 0 0 0 .07.04l2.089.598a.17.17 0 0 1-.07-.04l-2.089-.598Z"/></mask><path d="M16.668 11.356a.169.169 0 0 0 .07.04l2.089.598a.17.17 0 0 1-.07-.04l-2.089-.598Z" fill="#1F1F1F" stroke="#1F1F1F" stroke-width="1.656" stroke-linejoin="round" mask="url('#path-19-inside-19_363_1370')"/><mask id="path-20-inside-20_363_1370" fill="#fff"><path d="M16.74 11.396a.168.168 0 0 0 .06.005l2.09.599a.168.168 0 0 1-.061-.006l-2.09-.598Z"/></mask><path d="M16.74 11.396a.168.168 0 0 0 .06.005l2.09.599a.168.168 0 0 1-.061-.006l-2.09-.598Z" fill="#1F1F1F" stroke="#1F1F1F" stroke-width="1.656" stroke-linejoin="round" mask="url('#path-20-inside-20_363_1370')"/><mask id="path-21-inside-21_363_1370" fill="#fff"><path d="M16.802 11.401a.19.19 0 0 0 .124-.06l2.09.598a.19.19 0 0 1-.124.06l-2.09-.598Z"/></mask><path d="M16.802 11.401a.19.19 0 0 0 .124-.06l2.09.598a.19.19 0 0 1-.124.06l-2.09-.598Z" fill="#1F1F1F" stroke="#1F1F1F" stroke-width="1.656" stroke-linejoin="round" mask="url('#path-21-inside-21_363_1370')"/><mask id="path-22-inside-22_363_1370" fill="#fff"><path d="M16.926 11.34c.64-.712 1.092-1.436 1.337-2.145l2.09.599c-.246.708-.698 1.432-1.338 2.144l-2.09-.598Z"/></mask><path d="M16.926 11.34c.64-.712 1.092-1.436 1.337-2.145l2.09.599c-.246.708-.698 1.432-1.338 2.144l-2.09-.598Z" fill="#1F1F1F" stroke="#1F1F1F" stroke-width="1.656" stroke-linejoin="round" mask="url('#path-22-inside-22_363_1370')"/><mask id="path-23-inside-23_363_1370" fill="#fff"><path d="m18.259 9.196.394-1.13 2.09.599-.394 1.13-2.09-.599Z"/></mask><path d="m18.259 9.196.394-1.13 2.09.599-.394 1.13-2.09-.599Z" fill="#1F1F1F" stroke="#1F1F1F" stroke-width="1.656" stroke-linejoin="round" mask="url('#path-23-inside-23_363_1370')"/><mask id="path-24-inside-24_363_1370" fill="#fff"><path d="M18.654 8.066a.245.245 0 0 1 .066-.098l2.09.598a.245.245 0 0 0-.066.099l-2.09-.599Z"/></mask><path d="M18.654 8.066a.245.245 0 0 1 .066-.098l2.09.598a.245.245 0 0 0-.066.099l-2.09-.599Z" fill="#1F1F1F" stroke="#1F1F1F" stroke-width="1.656" stroke-linejoin="round" mask="url('#path-24-inside-24_363_1370')"/><mask id="path-25-inside-25_363_1370" fill="#fff"><path d="M18.726 7.967a.245.245 0 0 1 .104-.056l2.09.599a.245.245 0 0 0-.105.056l-2.09-.599Z"/></mask><path d="M18.726 7.967a.245.245 0 0 1 .104-.056l2.09.599a.245.245 0 0 0-.105.056l-2.09-.599Z" fill="#1F1F1F" stroke="#1F1F1F" stroke-width="1.656" stroke-linejoin="round" mask="url('#path-25-inside-25_363_1370')"/><mask id="path-26-inside-26_363_1370" fill="#fff"><path d="M18.826 7.91c.04-.009.08-.01.119 0l2.09.599a.246.246 0 0 0-.12 0l-2.089-.598Z"/></mask><path d="M18.826 7.91c.04-.009.08-.01.119 0l2.09.599a.246.246 0 0 0-.12 0l-2.089-.598Z" fill="#1F1F1F" stroke="#1F1F1F" stroke-width="1.656" stroke-linejoin="round" mask="url('#path-26-inside-26_363_1370')"/><mask id="path-27-inside-27_363_1370" fill="#fff"><path d="M19.047 7.966a.245.245 0 0 0-.086-.05l-.019-.005a.258.258 0 0 1 .019.005l2.071.594c.04.01.075.028.105.055l-2.09-.599Z"/></mask><path d="M19.047 7.966a.245.245 0 0 0-.086-.05l-.019-.005a.258.258 0 0 1 .019.005l2.071.594c.04.01.075.028.105.055l-2.09-.599Z" fill="#1F1F1F" stroke="#1F1F1F" stroke-width="1.656" stroke-linejoin="round" mask="url('#path-27-inside-27_363_1370')"/><mask id="path-28-inside-28_363_1370" fill="#fff"><path d="m19.05 7.967.883.809 2.09.598-.883-.809-2.09-.598Z"/></mask><path d="m19.05 7.967.883.809 2.09.598-.883-.809-2.09-.598Z" fill="#1F1F1F" stroke="#1F1F1F" stroke-width="1.656" stroke-linejoin="round" mask="url('#path-28-inside-28_363_1370')"/><mask id="path-29-inside-29_363_1370" fill="#fff"><path d="M16.829 26.273a10.737 10.737 0 0 1-4.152.826l2.09.599c1.44 0 2.835-.279 4.151-.827l-2.09-.598Z"/></mask><path d="M16.829 26.273a10.737 10.737 0 0 1-4.152.826l2.09.599c1.44 0 2.835-.279 4.151-.827l-2.09-.598Z" fill="#1F1F1F" stroke="#1F1F1F" stroke-width="1.656" stroke-linejoin="round" mask="url('#path-29-inside-29_363_1370')"/><mask id="path-30-inside-30_363_1370" fill="#fff"><path d="M19.932 8.775a10.525 10.525 0 0 1 2.514 3.49l2.09.598a10.524 10.524 0 0 0-2.515-3.49l-2.09-.598Z"/></mask><path d="M19.932 8.775a10.525 10.525 0 0 1 2.514 3.49l2.09.598a10.524 10.524 0 0 0-2.515-3.49l-2.09-.598Z" fill="#1F1F1F" stroke="#1F1F1F" stroke-width="1.656" stroke-linejoin="round" mask="url('#path-30-inside-30_363_1370')"/><mask id="path-31-inside-31_363_1370" fill="#fff"><path d="M20.218 24.01a10.572 10.572 0 0 1-3.394 2.263l2.09.599a10.573 10.573 0 0 0 3.394-2.263l-2.09-.598Z"/></mask><path d="M20.218 24.01a10.572 10.572 0 0 1-3.394 2.263l2.09.599a10.573 10.573 0 0 0 3.394-2.263l-2.09-.598Z" fill="#1F1F1F" stroke="#1F1F1F" stroke-width="1.656" stroke-linejoin="round" mask="url('#path-31-inside-31_363_1370')"/><mask id="path-32-inside-32_363_1370" fill="#fff"><path d="M22.44 12.265c.603 1.354.906 2.79.906 4.267l2.09.599c0-1.478-.303-2.914-.907-4.268l-2.09-.598Z"/></mask><path d="M22.44 12.265c.603 1.354.906 2.79.906 4.267l2.09.599c0-1.478-.303-2.914-.907-4.268l-2.09-.598Z" fill="#1F1F1F" stroke="#1F1F1F" stroke-width="1.656" stroke-linejoin="round" mask="url('#path-32-inside-32_363_1370')"/><mask id="path-33-inside-33_363_1370" fill="#fff"><path d="M22.512 20.651a10.486 10.486 0 0 1-2.29 3.36l2.09.598a10.484 10.484 0 0 0 2.29-3.36l-2.09-.598Z"/></mask><path d="M22.512 20.651a10.486 10.486 0 0 1-2.29 3.36l2.09.598a10.484 10.484 0 0 0 2.29-3.36l-2.09-.598Z" fill="#1F1F1F" stroke="#1F1F1F" stroke-width="1.656" stroke-linejoin="round" mask="url('#path-33-inside-33_363_1370')"/><mask id="path-34-inside-34_363_1370" fill="#fff"><path d="M23.355 16.532a10.413 10.413 0 0 1-.84 4.12l2.09.598c.556-1.302.842-2.703.84-4.12l-2.09-.598Z"/></mask><path d="M23.355 16.532a10.413 10.413 0 0 1-.84 4.12l2.09.598c.556-1.302.842-2.703.84-4.12l-2.09-.598Z" fill="#1F1F1F" stroke="#1F1F1F" stroke-width="1.656" stroke-linejoin="round" mask="url('#path-34-inside-34_363_1370')"/><mask id="path-35-inside-35_363_1370" fill="#fff"><path d="M22.448 12.264a10.526 10.526 0 0 0-2.514-3.49l-.883-.808a.246.246 0 0 0-.394.1l-.394 1.13c-.246.708-.698 1.432-1.338 2.144a.19.19 0 0 1-.124.06.167.167 0 0 1-.13-.045.178.178 0 0 1-.061-.145c.112-1.824-.434-3.88-1.629-6.119-.988-1.86-2.362-3.31-4.079-4.322L9.65.033a.243.243 0 0 0-.364.221l.066 1.454c.046.994-.07 1.872-.342 2.602a8.635 8.635 0 0 1-1.426 2.469c-.426.517-.91.986-1.44 1.396a10.682 10.682 0 0 0-3.042 3.68 10.521 10.521 0 0 0-.258 8.793 10.656 10.656 0 0 0 5.683 5.622c1.317.55 2.712.83 4.152.83s2.836-.28 4.152-.828a10.575 10.575 0 0 0 3.394-2.262 10.484 10.484 0 0 0 3.13-7.479c0-1.477-.303-2.913-.907-4.267Z"/></mask><path d="M22.448 12.264a10.526 10.526 0 0 0-2.514-3.49l-.883-.808a.246.246 0 0 0-.394.1l-.394 1.13c-.246.708-.698 1.432-1.338 2.144a.19.19 0 0 1-.124.06.167.167 0 0 1-.13-.045.178.178 0 0 1-.061-.145c.112-1.824-.434-3.88-1.629-6.119-.988-1.86-2.362-3.31-4.079-4.322L9.65.033a.243.243 0 0 0-.364.221l.066 1.454c.046.994-.07 1.872-.342 2.602a8.635 8.635 0 0 1-1.426 2.469c-.426.517-.91.986-1.44 1.396a10.682 10.682 0 0 0-3.042 3.68 10.521 10.521 0 0 0-.258 8.793 10.656 10.656 0 0 0 5.683 5.622c1.317.55 2.712.83 4.152.83s2.836-.28 4.152-.828a10.575 10.575 0 0 0 3.394-2.262 10.484 10.484 0 0 0 3.13-7.479c0-1.477-.303-2.913-.907-4.267Z" fill="#FDBF1C" stroke="#1F1F1F" stroke-width="1.656" mask="url('#path-35-inside-35_363_1370')"/></g><path d="M33.6 21.5V7.3h2.6v5.92h5.86V7.3h2.6v14.2h-2.6v-6.02H36.2v6.02h-2.6Zm19.483.32c-4.22 0-6.78-2.82-6.78-7.4 0-4.62 2.56-7.44 6.78-7.44 4.24 0 6.76 2.82 6.76 7.44 0 4.58-2.52 7.4-6.76 7.4Zm-4.06-7.4c0 3.2 1.5 5.14 4.06 5.14 2.56 0 4.08-1.94 4.08-5.14 0-3.24-1.52-5.18-4.08-5.18s-4.06 1.94-4.06 5.18ZM71.486 7.3v2.26h-4.32V21.5h-2.6V9.56h-4.3V7.3h11.22Z" fill="#FDBF1C"/><defs><clipPath id="clip0_363_1370"><path fill="#fff" d="M0 0h28v28H0z"/></clipPath></defs></svg>