<svg width="195" height="21" viewBox="0 0 195 21" fill="none" xmlns="http://www.w3.org/2000/svg">
<g clip-path="url(#clip0_23_1025)">
<path fill-rule="evenodd" clip-rule="evenodd" d="M102.904 7.78907C102.904 6.03794 103.416 4.36427 104.799 3.1212C106.189 1.87106 108.523 1 112.285 1H113.885C117.966 1 120.294 2.03932 121.608 3.421C122.923 4.80477 123.292 6.60728 123.292 8.29354V8.86951H107.754L107.854 9.3581C108.045 10.2979 108.547 11.0951 109.449 11.6454C110.336 12.1861 111.578 12.4704 113.229 12.4704H113.256C115.242 12.4704 116.453 12.0904 117.19 11.6215C117.709 11.2912 117.983 10.9236 118.122 10.6383H123.195C123.118 11.4675 122.761 12.499 121.682 13.3767C120.415 14.4066 118.102 15.2685 113.938 15.2685H112.443C108.736 15.2685 106.359 14.3919 104.913 13.1211C103.476 11.8569 102.904 10.1544 102.904 8.37323V7.78907ZM113.046 3.50601C111.544 3.50601 110.406 3.73558 109.572 4.19628C108.722 4.66614 108.218 5.36055 107.967 6.21255L107.813 6.7352H118.314L118.181 6.22528C117.957 5.3619 117.447 4.66457 116.586 4.19521C115.744 3.73537 114.586 3.50601 113.072 3.50601H113.046ZM152.911 7.76253C152.911 6.01557 153.53 4.34786 154.815 3.11562C156.099 1.88405 158.083 1.0531 160.875 1.0531H161.269C165.267 1.0531 167.135 2.62026 167.699 3.19096L168.384 3.88487V1.39828H173.455V14.8702H168.436V11.7304L167.701 12.8474C167.361 13.3644 165.497 15.2154 161.505 15.2154H161.138C158.237 15.2154 156.188 14.3822 154.867 13.1222C153.546 11.8626 152.911 10.1372 152.911 8.267V7.76253ZM162.843 3.98396C161.088 3.98396 159.884 4.48516 159.119 5.28212C158.358 6.07518 158.088 7.10464 158.088 8.05461V8.16077C158.088 9.08022 158.423 10.1096 159.211 10.9102C160.003 11.7165 161.221 12.258 162.921 12.258H163.052C166.347 12.258 168.384 10.2061 168.384 8.16077V8.05461C168.384 5.94208 166.251 3.98396 162.973 3.98396H162.843ZM73.625 1.39828L79.1404 14.8702H84.6509L88.392 4.65503L92.1331 14.8702H97.7677L102.912 1.39828H98.3292L94.9318 11.3417L91.3628 1.39828H85.7914L82.3374 11.3417L78.8256 1.39828H73.625ZM128.635 14.8702L123.119 1.39828H128.32L131.831 11.3417L135.286 1.39828H140.857L144.426 11.3417L147.823 1.39828H152.407L147.262 14.8702H141.628L137.887 4.65503L134.145 14.8702H128.635ZM175.197 1.39828L181.63 13.8671L181.631 13.8689C181.697 13.9983 181.76 14.1197 181.818 14.233C181.94 14.4691 182.044 14.6705 182.122 14.8376C182.235 15.0784 182.331 15.3237 182.331 15.5688C182.331 15.7732 182.283 16.0435 182.035 16.2304C181.823 16.3893 181.539 16.4266 181.248 16.4266H178.345V19.862H183.057C184.25 19.862 185.12 19.5482 185.852 18.9416C186.599 18.3228 187.23 17.376 187.89 16.0514L187.892 16.0494L195.001 1.39828H190.029L185.371 11.615L180.575 1.39828H175.197Z" fill="white"/>
<path fill-rule="evenodd" clip-rule="evenodd" d="M60.5872 1.41616C61.1355 1.97104 61.1355 2.87069 60.5872 3.42557L50.0689 14.0748C49.521 14.6297 48.6324 14.6297 48.0843 14.0748C47.5362 13.5199 47.5362 12.6203 48.0843 12.0654L58.6025 1.41616C59.1507 0.86128 60.0393 0.86128 60.5872 1.41616ZM32.1932 3.42557C31.6451 2.87069 31.6451 1.97104 32.1932 1.41616C32.7412 0.86128 33.6298 0.86128 34.1779 1.41616L44.6962 12.0654C45.2443 12.6203 45.2443 13.5199 44.6962 14.0748C44.148 14.6297 43.2596 14.6297 42.7115 14.0748L32.1932 3.42557ZM28.805 1.41616C29.353 1.97104 29.353 2.87069 28.805 3.42557L18.2867 14.0748C17.7387 14.6297 16.85 14.6297 16.302 14.0748C15.7539 13.5199 15.7539 12.6203 16.302 12.0654L26.8203 1.41616C27.3684 0.86128 28.2569 0.86128 28.805 1.41616ZM0.411044 3.42557C-0.137015 2.87069 -0.137015 1.97104 0.411044 1.41616C0.959105 0.86128 1.84769 0.86128 2.39575 1.41616L12.914 12.0654C13.4621 12.6203 13.4621 13.5199 12.914 14.0748C12.3659 14.6297 11.4774 14.6297 10.9293 14.0748L0.411044 3.42557Z" fill="white"/>
</g>
<defs>
<clipPath id="clip0_23_1025">
<rect width="195" height="20" fill="white" transform="translate(0 0.5)"/>
</clipPath>
</defs>
</svg>
