<svg width="24" height="24" viewBox="0 0 24 24" fill="none" xmlns="http://www.w3.org/2000/svg">
<g clip-path="url(#clip0_3964_9138)">
<path d="M23.768 5.03201L18.968 0.232013C18.8932 0.157868 18.8046 0.099208 18.7071 0.0593963C18.6096 0.0195847 18.5053 -0.000595343 18.4 1.33714e-05H16.8V6.40001C16.8 6.82436 16.6314 7.23132 16.3314 7.53138C16.0313 7.83144 15.6243 8.00001 15.2 8.00001H8.79999C8.37565 8.00001 7.96868 7.83144 7.66862 7.53138C7.36857 7.23132 7.2 6.82436 7.2 6.40001V1.33714e-05H2.4C1.76348 1.33714e-05 1.15303 0.25287 0.702943 0.702957C0.252856 1.15304 0 1.76349 0 2.40001V21.6C0 22.2365 0.252856 22.847 0.702943 23.2971C1.15303 23.7471 1.76348 24 2.4 24H4V16.8C4 16.1635 4.25285 15.553 4.70294 15.1029C5.15303 14.6529 5.76348 14.4 6.4 14.4H17.6C18.2365 14.4 18.847 14.6529 19.297 15.1029C19.7471 15.553 20 16.1635 20 16.8V24H21.6C22.2365 24 22.847 23.7471 23.297 23.2971C23.7471 22.847 24 22.2365 24 21.6V5.60001C24.0006 5.49472 23.9804 5.39036 23.9406 5.29289C23.9008 5.19542 23.8421 5.10676 23.768 5.03201Z" fill="#0D71E1"/>
<path d="M8.80005 0H15.2V6.4H8.80005V0Z" fill="#0D71E1"/>
<path d="M17.6 16H6.39998C6.1878 16 5.98432 16.0843 5.83429 16.2343C5.68426 16.3843 5.59998 16.5878 5.59998 16.8V24H18.4V16.8C18.4 16.5878 18.3157 16.3843 18.1657 16.2343C18.0156 16.0843 17.8121 16 17.6 16Z" fill="#0D71E1"/>
</g>
<defs>
<clipPath id="clip0_3964_9138">
<rect width="24" height="24" fill="white"/>
</clipPath>
</defs>
</svg>
