<svg width="24" height="24" viewBox="0 0 24 24" fill="none" xmlns="http://www.w3.org/2000/svg">
<g clip-path="url(#clip0_3964_9110)">
<path d="M10.5949 16.9218H12.7043V15.5156H10.5949C10.2066 15.5156 9.8918 15.2008 9.8918 14.8125V12C9.8918 11.6116 10.2066 11.2968 10.5949 11.2968H11.2969V9.89368C8.88891 10.2363 7.03125 12.3113 7.03125 14.8125C7.03125 17.3136 8.88891 19.3886 11.2969 19.7312V18.3281H10.5949C10.2066 18.3281 9.8918 18.0133 9.8918 17.625C9.8918 17.2366 10.2066 16.9218 10.5949 16.9218Z" fill="#885EFF"/>
<path d="M16.9688 14.8125C16.9688 12.3113 15.1111 10.2363 12.7032 9.89368V11.2968H13.4075C13.7958 11.2968 14.1106 11.6116 14.1106 12C14.1106 12.3883 13.7958 12.7031 13.4075 12.7031H11.2981V14.1093H13.4075C13.7958 14.1093 14.1106 14.4241 14.1106 14.8125V17.625C14.1106 18.0133 13.7958 18.3281 13.4075 18.3281H12.7032V19.7312C15.1111 19.3886 16.9688 17.3136 16.9688 14.8125Z" fill="#885EFF"/>
<path d="M19.7316 9.854H16.0027C17.4488 11.024 18.375 12.8118 18.375 14.8124C18.375 18.3276 15.5152 21.1874 12 21.1874C8.48484 21.1874 5.625 18.3276 5.625 14.8124C5.625 12.8118 6.55125 11.024 7.99734 9.854H4.26844C3.34734 11.2851 2.8125 12.9876 2.8125 14.8124C2.8125 19.8787 6.93375 23.9999 12 23.9999C17.0663 23.9999 21.1875 19.8787 21.1875 14.8124C21.1875 12.9876 20.6527 11.2851 19.7316 9.854Z" fill="#885EFF"/>
<path d="M19.7344 5.97325V7.73434C19.7344 8.12247 20.0494 8.43747 20.4375 8.43747C20.8256 8.43747 21.1406 8.12247 21.1406 7.73434V5.50403C21.1289 5.50872 21.1167 5.51247 21.1045 5.51668L19.7344 5.97325Z" fill="#885EFF"/>
<path d="M3.34014 4.18264L5.67185 4.95988V8.45704H18.3258V4.96068L20.6598 4.18264C21.299 3.96955 21.299 3.06163 20.6598 2.84854L12.2223 0.0360352C12.078 -0.0120117 11.9219 -0.0120117 11.7776 0.0360352L3.34014 2.84854C2.70091 3.06163 2.70091 3.96955 3.34014 4.18264Z" fill="#885EFF"/>
</g>
<defs>
<clipPath id="clip0_3964_9110">
<rect width="24" height="24" fill="white"/>
</clipPath>
</defs>
</svg>
