<svg width="25" height="24" viewBox="0 0 25 24" fill="none" xmlns="http://www.w3.org/2000/svg">
<g clip-path="url(#clip0_3964_9135)">
<path d="M23.0181 6.59863H4.13282C3.648 6.59863 3.25611 6.20586 3.25611 5.72191C3.25611 5.23797 3.648 4.8452 4.13282 4.8452H19.5384V1.55753C19.5384 1.09024 19.3289 0.654516 18.9642 0.362571C18.5977 0.0688725 18.1234 -0.0372098 17.671 0.0644888L1.19408 3.76421C0.491836 3.92202 0 4.5366 0 5.25726V22.4434C0 23.2868 0.686466 23.9742 1.52986 23.9742H23.0181C23.8615 23.9742 24.5479 23.2877 24.5479 22.4434V8.12849C24.5479 7.28509 23.8615 6.59863 23.0181 6.59863ZM20.2573 16.8491C19.4376 16.8491 18.7713 16.182 18.7713 15.3622C18.7713 14.5425 19.4385 13.8753 20.2573 13.8753C21.0779 13.8753 21.7442 14.5425 21.7442 15.3622C21.7442 16.182 21.0779 16.8491 20.2573 16.8491Z" fill="#FFB800"/>
</g>
<defs>
<clipPath id="clip0_3964_9135">
<rect width="24.5479" height="24" fill="white"/>
</clipPath>
</defs>
</svg>
