<svg width="24" height="24" viewBox="0 0 24 24" fill="none" xmlns="http://www.w3.org/2000/svg">
<g clip-path="url(#clip0_3964_9105)">
<path d="M12 0C5.38286 0 0 5.38286 0 12C0 18.6171 5.38286 24 12 24C18.6171 24 24 18.6171 24 12C24 5.38286 18.6171 0 12 0ZM12 20.5714C7.27714 20.5714 3.42857 16.7229 3.42857 12C3.42857 7.27714 7.27714 3.42857 12 3.42857C16.7229 3.42857 20.5714 7.27714 20.5714 12C20.5714 16.7229 16.7229 20.5714 12 20.5714Z" fill="#FFB800"/>
<path d="M12 5.14282C8.21997 5.14282 5.14282 8.21997 5.14282 12C5.14282 15.78 8.21997 18.8571 12 18.8571C15.78 18.8571 18.8571 15.78 18.8571 12C18.8571 8.21997 15.78 5.14282 12 5.14282ZM15.6343 13.0885L14.6485 13.6285C14.22 13.86 13.8685 14.2114 13.6285 14.6485L13.0885 15.6343C12.8657 16.0285 12.4543 16.2771 12 16.2771C11.5457 16.2771 11.1343 16.0285 10.9114 15.6343L10.3714 14.6485C10.1314 14.2114 9.77997 13.86 9.35139 13.6285L8.36568 13.0885C7.96282 12.8743 7.71425 12.4543 7.71425 12C7.71425 11.5457 7.96282 11.1257 8.36568 10.9114L9.35139 10.3714C9.77997 10.14 10.1314 9.78854 10.3714 9.35139L10.9114 8.36568C11.1343 7.97139 11.5457 7.72282 12 7.72282C12.4543 7.72282 12.8657 7.97139 13.0885 8.36568L13.6285 9.35139C13.8685 9.77997 14.22 10.14 14.6485 10.3714L15.6343 10.9114C16.0371 11.1257 16.2857 11.5457 16.2857 12C16.2857 12.4543 16.0371 12.8743 15.6343 13.0885Z" fill="#FFB800"/>
</g>
<defs>
<clipPath id="clip0_3964_9105">
<rect width="24" height="24" fill="white"/>
</clipPath>
</defs>
</svg>
