<svg width="24" height="24" viewBox="0 0 24 24" fill="none" xmlns="http://www.w3.org/2000/svg">
<g clip-path="url(#clip0_3964_9097)">
<path d="M12 0.0391846C5.38317 0.0391846 0 5.42236 0 12.0392C0.603281 27.9369 23.3992 27.9326 24 12.039C24 5.42231 18.6168 0.0391846 12 0.0391846ZM17.016 12.5363L10.2378 19.3145C9.7822 19.774 8.97141 19.4101 9.04177 18.7396L9.70814 12.7423H7.48125C7.19686 12.7423 6.9405 12.571 6.83166 12.3082C6.72286 12.0455 6.783 11.7431 6.98409 11.542L13.7623 4.76386C13.9734 4.55268 14.2948 4.49789 14.564 4.62731C14.8331 4.75668 14.9912 5.04192 14.9582 5.33868L14.2919 11.336H16.5187C16.8031 11.336 17.0595 11.5073 17.1683 11.7701C17.2772 12.0329 17.217 12.3352 17.016 12.5363Z" fill="#2CBE59"/>
<path d="M12.9823 12.508C12.8489 12.359 12.7853 12.1602 12.8074 11.9615L13.3392 7.17554L9.17871 11.336H10.4937C10.6938 11.336 10.8843 11.4211 11.0177 11.5702C11.1511 11.7192 11.2147 11.918 11.1926 12.1167L10.6608 16.9027L14.8213 12.7422H13.5063C13.3062 12.7423 13.1157 12.6571 12.9823 12.508Z" fill="#2CBE59"/>
</g>
<defs>
<clipPath id="clip0_3964_9097">
<rect width="24" height="24" fill="white"/>
</clipPath>
</defs>
</svg>
