<svg width="24" height="24" viewBox="0 0 24 24" fill="none" xmlns="http://www.w3.org/2000/svg">
<g clip-path="url(#clip0_3964_9117)">
<path d="M18.1608 7.63125L22.0261 5.39953C21.5822 4.72828 21.0675 4.09688 20.4853 3.51469C18.3853 1.41469 15.6441 0.168281 12.7031 0V4.47703C14.9527 4.68563 16.9186 5.88422 18.1608 7.63125Z" fill="#FFB800"/>
<path d="M4.44469 12C4.44469 10.8755 4.69172 9.80817 5.13422 8.84817L1.26891 6.61646C0.43875 8.26599 0 10.0993 0 12C0 13.9008 0.43875 15.7341 1.26891 17.3836L5.13281 15.1529C4.68047 14.169 4.44469 13.0955 4.44469 12Z" fill="#FFB800"/>
<path d="M11.2968 4.47703V0C8.35591 0.168281 5.61466 1.41469 3.51466 3.51469C2.93247 4.09688 2.41778 4.72828 1.97388 5.39953L5.83919 7.63125C7.08138 5.88422 9.04731 4.68563 11.2968 4.47703Z" fill="#FFB800"/>
<path d="M5.49888 18.5011V16.5652L1.97388 18.6005C2.41778 19.2717 2.93247 19.9032 3.51466 20.4853C5.61466 22.5853 8.35591 23.8317 11.2968 24V19.5225C10.185 19.4194 9.11106 19.0721 8.14919 18.5011H5.49888Z" fill="#FFB800"/>
<path d="M12.7031 19.523V24C15.6441 23.8317 18.3853 22.5853 20.4853 20.4853C21.0675 19.9031 21.5822 19.2717 22.0261 18.6005L18.1608 16.3688C16.9186 18.1158 14.9527 19.3144 12.7031 19.523Z" fill="#FFB800"/>
<path d="M22.731 6.61646L18.8657 8.84817C19.3082 9.80817 19.5553 10.8755 19.5553 12C19.5553 13.1246 19.3082 14.1919 18.8657 15.1519L22.731 17.3836C23.5612 15.7341 23.9999 13.9008 23.9999 12C23.9999 10.0993 23.5612 8.26599 22.731 6.61646Z" fill="#FFB800"/>
<path d="M18.1491 12C18.1491 8.60955 15.3905 5.85095 12 5.85095C8.60955 5.85095 5.85095 8.60955 5.85095 12C5.85095 13.1644 6.17767 14.2974 6.79642 15.2775L6.90517 15.4495V17.0949H8.55048L8.72251 17.2036C9.70267 17.8224 10.8356 18.1491 12 18.1491C15.3905 18.1491 18.1491 15.3905 18.1491 12ZM12.7031 16.125H11.2969V14.7188H12.7031V16.125ZM12.7031 12.8428V13.3125H11.2969V11.5378H12C12.5963 11.5378 13.0814 11.0527 13.0814 10.4564C13.0814 9.86017 12.5963 9.37501 12 9.37501C11.4038 9.37501 10.9186 9.86017 10.9186 10.4564H9.51236C9.51236 9.08486 10.6285 7.96876 12 7.96876C13.3716 7.96876 14.4877 9.08486 14.4877 10.4564C14.4877 11.5838 13.7335 12.5386 12.7031 12.8428Z" fill="#FFB800"/>
</g>
<defs>
<clipPath id="clip0_3964_9117">
<rect width="24" height="24" fill="white"/>
</clipPath>
</defs>
</svg>
