<svg width="24" height="24" viewBox="0 0 24 24" fill="none" xmlns="http://www.w3.org/2000/svg">
<g clip-path="url(#clip0_3964_9126)">
<path d="M20.6699 15.2438H11.1569L17.8823 21.9692C18.1796 22.2665 18.672 22.2399 18.9309 21.9085C20.2663 20.199 21.1037 18.1789 21.3685 16.0283C21.4199 15.6109 21.0905 15.2438 20.6699 15.2438Z" fill="#2CBE59"/>
<path d="M8.96217 15.0378C8.83031 14.906 8.7562 14.7271 8.7562 14.5406V5.89717C8.7562 5.46644 8.37187 5.13348 7.94662 5.20211C3.43809 5.92989 -0.0141129 9.85558 4.338e-05 14.5695C0.0156059 19.7544 4.24992 23.9868 9.43472 24C11.4575 24.0051 13.3848 23.3787 14.9923 22.2138C15.3412 21.9609 15.3784 21.454 15.0736 21.1493L8.96217 15.0378Z" fill="#2CBE59"/>
<path d="M23.9964 13.0633C23.3008 6.18479 17.8152 0.69924 10.9367 0.0036149C10.5218 -0.0383382 10.1625 0.290302 10.1625 0.707256V13.8375H23.2927C23.7097 13.8375 24.0383 13.4782 23.9964 13.0633Z" fill="#2CBE59"/>
</g>
<defs>
<clipPath id="clip0_3964_9126">
<rect width="24" height="24" fill="white"/>
</clipPath>
</defs>
</svg>
