<svg width="24" height="24" viewBox="0 0 24 24" fill="none" xmlns="http://www.w3.org/2000/svg">
<g clip-path="url(#clip0_3964_9142)">
<path d="M12 4.84692C7.41454 4.84692 3.25621 7.35567 0.187788 11.4305C-0.0625959 11.7644 -0.0625959 12.2308 0.187788 12.5646C3.25621 16.6444 7.41454 19.1532 12 19.1532C16.5855 19.1532 20.7438 16.6444 23.8122 12.5695C24.0626 12.2357 24.0626 11.7693 23.8122 11.4354C20.7438 7.35567 16.5855 4.84692 12 4.84692ZM12.3289 17.0372C9.28506 17.2286 6.7714 14.7199 6.96287 11.6711C7.11998 9.15745 9.15741 7.12001 11.6711 6.96291C14.7149 6.77144 17.2286 9.28019 17.0371 12.329C16.8751 14.8377 14.8377 16.8752 12.3289 17.0372ZM12.1767 14.7101C10.537 14.8132 9.18196 13.4631 9.28997 11.8233C9.37343 10.4683 10.4732 9.37347 11.8282 9.2851C13.4679 9.182 14.823 10.5321 14.7149 12.1719C14.6266 13.5318 13.5268 14.6266 12.1767 14.7101Z" fill="#2CBE59"/>
</g>
<defs>
<clipPath id="clip0_3964_9142">
<rect width="24" height="24" fill="white"/>
</clipPath>
</defs>
</svg>
