<svg width="24" height="24" viewBox="0 0 24 24" fill="none" xmlns="http://www.w3.org/2000/svg">
<g clip-path="url(#clip0_1327_11550)">
<path d="M4.22628 14.6721L9.4798 9.41856L10.7347 10.6749C11.3263 11.2695 12.1138 11.5971 12.9519 11.5971C13.79 11.5971 14.5775 11.2695 15.1694 10.6746C16.3867 9.45124 16.3867 7.46074 15.1694 6.23735L13.2019 4.26456L14.1793 3.40502C16.6378 1.2505 20.3775 1.49702 22.532 3.95561C24.6866 6.4142 24.44 10.1539 21.9815 12.3084L20.5772 13.6063L19.0182 12.0473C18.1112 11.1403 16.6353 11.1403 15.7283 12.0473C15.2958 12.4798 15.0551 13.0528 15.0477 13.6633C14.462 13.6708 13.8786 13.897 13.4327 14.3429C12.9866 14.789 12.7604 15.3728 12.7532 15.9588C12.1671 15.966 11.5834 16.1922 11.1372 16.6384C10.2302 17.5454 10.2302 19.0213 11.1372 19.9283L12.3858 21.1769L11.3298 22.1528C10.6094 22.7841 9.51364 22.7119 8.88233 21.9915C8.25102 21.2711 8.32325 20.1753 9.04367 19.544C8.3233 20.1753 7.2275 20.1031 6.59624 19.3827C5.96492 18.6623 6.03716 17.5665 6.75758 16.9353L6.75749 16.9352C6.03711 17.5665 4.94131 17.4942 4.31 16.7738C3.76902 16.1565 3.80033 15.3771 4.22628 14.6721Z" fill="#FFD24D"/>
<path d="M1.73365 3.14968C4.04525 0.838129 7.793 0.838129 10.1046 3.14968L14.1731 7.22893C14.6589 7.71727 14.8082 8.46896 14.5519 9.1073C14.2731 9.80175 13.555 10.2464 12.8088 10.1844C12.3973 10.1503 12.0097 9.96539 11.7207 9.67125L9.48087 7.42894L3.5614 13.3483L1.7337 11.5206C-0.577892 9.20902 -0.577892 5.46122 1.73365 3.14968Z" fill="#FFD24D"/>
<path d="M18.7292 16.3473L16.7236 14.3417C16.5498 14.1679 16.4541 13.9368 16.4541 13.6911C16.4541 13.4453 16.5498 13.2143 16.7236 13.0405C16.9029 12.8612 17.1386 12.7715 17.3742 12.7715C17.6098 12.7715 17.8454 12.8612 18.0247 13.0405L20.0303 15.0461C20.3877 15.4035 20.3888 15.9839 20.0342 16.343C20.0283 16.3488 20.0223 16.3543 20.0164 16.36C19.8442 16.5253 19.6192 16.6168 19.3798 16.6168C19.134 16.6168 18.903 16.5211 18.7292 16.3473Z" fill="#FFD24D"/>
<path d="M16.4333 18.6427L14.4276 16.637C14.2539 16.4632 14.1582 16.2322 14.1582 15.9865C14.1582 15.7407 14.2539 15.5097 14.4276 15.3359C14.6015 15.1621 14.8325 15.0664 15.0782 15.0664C15.324 15.0664 15.555 15.1621 15.7288 15.3359L17.7344 17.3415C17.9082 17.5153 18.0039 17.7463 18.0039 17.9921C18.0039 18.2365 17.9091 18.4662 17.7372 18.6397C17.7334 18.6434 17.7295 18.647 17.7257 18.6507C17.3662 19.0009 16.7892 18.9986 16.4333 18.6427Z" fill="#FFD24D"/>
<path d="M14.138 20.9376L12.1323 18.932C11.7736 18.5733 11.7736 17.9895 12.1323 17.6309C12.3061 17.4571 12.5371 17.3613 12.7829 17.3613C13.0287 17.3613 13.2597 17.457 13.4335 17.6308L15.4391 19.6365C15.6129 19.8103 15.7086 20.0413 15.7086 20.287C15.7086 20.5321 15.6133 20.7625 15.4405 20.9361C15.4386 20.938 15.4367 20.9397 15.4348 20.9415C15.0757 21.2961 14.4953 21.2949 14.138 20.9376Z" fill="#FFD24D"/>
</g>
<defs>
<clipPath id="clip0_1327_11550">
<rect width="24" height="24" fill="white"/>
</clipPath>
</defs>
</svg>
