<svg width="24" height="24" viewBox="0 0 24 24" fill="none" xmlns="http://www.w3.org/2000/svg">
<g clip-path="url(#clip0_1327_11537)">
<path d="M12.0002 13.411C10.4408 13.411 9.17665 12.1468 9.17665 10.5874C9.17665 9.02803 10.4408 7.7639 12.0002 7.7639C13.5596 7.7639 14.8237 9.02803 14.8237 10.5874C14.8237 12.1468 13.5596 13.411 12.0002 13.411ZM0.988992 6.99883C0.63183 7.15509 0.21562 6.99223 0.0593616 6.63506C-0.0968968 6.2779 0.0659667 5.8617 0.423129 5.70544L11.7172 0.764261C11.8976 0.68535 12.1027 0.68535 12.2831 0.764261L23.5772 5.70544C23.9344 5.8617 24.0972 6.2779 23.941 6.63506C23.7847 6.99223 23.3685 7.15509 23.0114 6.99883L12.0002 2.18144L0.988992 6.99883ZM12.0002 14.4698C13.5596 14.4698 14.8237 15.7339 14.8237 17.2933V22.5874C14.8237 22.9773 14.5077 23.2933 14.1178 23.2933H9.88253C9.49268 23.2933 9.17665 22.9773 9.17665 22.5874V17.2933C9.17665 15.7339 10.4408 14.4698 12.0002 14.4698ZM19.4119 16.9404C18.0475 16.9404 16.9414 15.8342 16.9414 14.4698C16.9414 13.1053 18.0475 11.9992 19.4119 11.9992C20.7764 11.9992 21.8825 13.1053 21.8825 14.4698C21.8825 15.8342 20.7764 16.9404 19.4119 16.9404ZM21.8825 20.4698V22.5874C21.8825 22.9773 21.5665 23.2933 21.1766 23.2933H17.6472C17.2574 23.2933 16.9414 22.9773 16.9414 22.5874V20.4698C16.9414 19.1053 18.0475 17.9992 19.4119 17.9992C20.7764 17.9992 21.8825 19.1053 21.8825 20.4698ZM4.58841 16.5874C3.22394 16.5874 2.11782 15.4813 2.11782 14.1168C2.11782 12.7524 3.22394 11.6463 4.58841 11.6463C5.95288 11.6463 7.059 12.7524 7.059 14.1168C7.059 15.4813 5.95288 16.5874 4.58841 16.5874ZM4.58841 17.6463C5.95288 17.6463 7.059 18.7524 7.059 20.1168V22.5874C7.059 22.9773 6.74297 23.2933 6.35312 23.2933H2.82371C2.43386 23.2933 2.11782 22.9773 2.11782 22.5874V20.1168C2.11782 18.7524 3.22394 17.6463 4.58841 17.6463Z" fill="#00A3FF"/>
</g>
<defs>
<clipPath id="clip0_1327_11537">
<rect width="24" height="24" fill="white"/>
</clipPath>
</defs>
</svg>
