<svg width="167" height="171" viewBox="0 0 167 171" fill="none" xmlns="http://www.w3.org/2000/svg">
<path d="M83.5 0L90.7671 53.6607L120.597 8.46716L103.862 59.9669L150.347 32.1916L112.924 71.3302L166.856 66.4745L116.158 85.5L166.856 104.526L112.924 99.6698L150.347 138.808L103.862 111.033L120.597 162.533L90.7671 117.339L83.5 171L76.2329 117.339L46.4029 162.533L63.138 111.033L16.6534 138.808L54.0761 99.6698L0.143661 104.526L50.8419 85.5L0.143661 66.4745L54.0761 71.3302L16.6534 32.1916L63.138 59.9669L46.4029 8.46716L76.2329 53.6607L83.5 0Z" fill="#F995B3"/>
</svg>
