<svg width="82" height="80" viewBox="0 0 82 80" fill="none" xmlns="http://www.w3.org/2000/svg">
<path d="M39.7151 23.2576L41.2002 25.1332L42.7828 23.3391L56.1187 8.22174L51.5651 27.8596L51.0247 30.1901L53.4141 30.3089L73.5481 31.3098L55.3555 39.9936L53.1965 41.0242L54.5934 42.9663L66.3642 59.3318L48.232 50.5225L46.0802 49.4771L45.4327 51.7801L39.9766 71.1866L35.5588 51.5178L35.0345 49.1836L32.8302 50.1133L14.2558 57.9473L26.879 42.23L28.377 40.3648L26.2758 39.221L8.56996 29.5834L28.7287 29.653L31.1211 29.6613L30.7052 27.3054L27.2007 7.45344L39.7151 23.2576Z" fill="#F995B3" stroke="#907CE5" stroke-width="4"/>
</svg>
