<svg width="487" height="498" viewBox="0 0 487 498" fill="none" xmlns="http://www.w3.org/2000/svg">
<g clip-path="url(#clip0_3983_607)">
<path d="M423 249C423 266.673 437.327 281 455 281C472.673 281 487 266.673 487 249C487 231.327 472.673 217 455 217C437.327 217 423 231.327 423 249Z" fill="#8247E5"/>
<path d="M456.347 264.222L460.514 257C460.652 256.764 460.725 256.496 460.725 256.222C460.725 255.949 460.652 255.681 460.514 255.445L453.08 242.568C452.942 242.33 452.87 242.059 452.87 241.784C452.87 241.509 452.942 241.238 453.08 241L455.448 236.901C455.585 236.665 455.782 236.469 456.018 236.332C456.254 236.196 456.522 236.124 456.795 236.123L461.544 236.123C461.817 236.123 462.085 236.195 462.322 236.331C462.558 236.468 462.755 236.664 462.891 236.901L465.266 241C465.401 241.237 465.472 241.505 465.472 241.778C465.472 242.05 465.401 242.318 465.266 242.555L462.891 246.667C462.755 246.904 462.559 247.101 462.323 247.238C462.086 247.374 461.817 247.446 461.544 247.445L459.262 247.445C459.195 247.446 459.129 247.466 459.072 247.5C459.014 247.535 458.967 247.585 458.935 247.644C458.902 247.703 458.886 247.769 458.887 247.837C458.889 247.904 458.908 247.97 458.942 248.027L460.174 250.168C460.243 250.286 460.342 250.384 460.46 250.452C460.579 250.52 460.713 250.555 460.85 250.555L463.342 250.555C463.615 250.555 463.883 250.483 464.12 250.346C464.356 250.21 464.553 250.014 464.69 249.778L468.85 242.555C468.986 242.319 469.058 242.051 469.058 241.778C469.058 241.505 468.986 241.236 468.85 241L464.69 233.778C464.553 233.542 464.356 233.346 464.12 233.209C463.883 233.073 463.615 233.001 463.342 233L455 233C454.727 233 454.459 233.072 454.222 233.209C453.986 233.345 453.79 233.541 453.653 233.778L449.493 241C449.356 241.236 449.284 241.505 449.284 241.778C449.284 242.051 449.356 242.319 449.493 242.555L456.92 255.432C457.058 255.67 457.13 255.941 457.13 256.216C457.13 256.491 457.058 256.762 456.92 257L454.546 261.125C454.407 261.358 454.209 261.551 453.973 261.684C453.737 261.818 453.47 261.887 453.198 261.886L448.45 261.886C448.176 261.887 447.908 261.816 447.671 261.679C447.434 261.543 447.238 261.346 447.102 261.109L444.734 257C444.598 256.764 444.526 256.495 444.526 256.222C444.526 255.949 444.598 255.681 444.734 255.445L447.109 251.333C447.245 251.096 447.442 250.9 447.678 250.763C447.915 250.627 448.183 250.555 448.456 250.555L450.734 250.555C450.837 250.554 450.936 250.513 451.008 250.44C451.081 250.367 451.122 250.268 451.122 250.165C451.122 250.097 451.104 250.031 451.07 249.973L449.835 247.832C449.767 247.714 449.668 247.616 449.549 247.549C449.431 247.481 449.296 247.447 449.16 247.448L446.658 247.448C446.385 247.448 446.117 247.519 445.881 247.655C445.644 247.791 445.448 247.987 445.31 248.222L441.15 255.461C441.014 255.697 440.942 255.965 440.942 256.238C440.942 256.511 441.014 256.78 441.15 257.016L445.31 264.238C445.447 264.475 445.644 264.671 445.88 264.807C446.116 264.944 446.385 265.016 446.658 265.016L455 265.016C455.275 265.014 455.544 264.94 455.78 264.8C456.017 264.661 456.212 264.462 456.347 264.222Z" fill="white"/>
</g>
<g clip-path="url(#clip1_3983_607)">
<path d="M357.287 389.574C341.982 398.411 336.738 417.982 345.574 433.287C354.411 448.593 373.982 453.837 389.287 445C404.593 436.163 409.837 416.593 401 401.287C392.163 385.982 372.593 380.738 357.287 389.574Z" fill="url(#paint0_linear_3983_607)"/>
<path d="M378.805 407.133C378.775 407.254 378.72 407.368 378.645 407.468C378.569 407.568 378.473 407.651 378.364 407.712L358.134 419.392C358.076 419.422 358.012 419.44 357.948 419.445C357.883 419.45 357.817 419.442 357.755 419.422C357.694 419.402 357.636 419.369 357.587 419.327C357.538 419.284 357.497 419.233 357.468 419.174C357.414 419.069 357.397 418.948 357.422 418.832L359.116 412.536C359.181 412.293 359.339 412.084 359.557 411.957L379.787 400.277C379.871 400.219 379.972 400.189 380.074 400.192C380.176 400.196 380.274 400.232 380.354 400.295C380.434 400.359 380.492 400.446 380.519 400.545C380.545 400.643 380.539 400.748 380.502 400.843L378.805 407.133Z" fill="url(#paint1_linear_3983_607)"/>
<path d="M387.423 422.059C387.359 422.303 387.201 422.513 386.983 422.641L366.753 434.321C366.671 434.367 366.577 434.388 366.483 434.381C366.39 434.374 366.3 434.34 366.226 434.282C366.151 434.225 366.095 434.147 366.065 434.058C366.034 433.969 366.03 433.874 366.054 433.783L367.733 427.463C367.798 427.219 367.957 427.011 368.174 426.883L388.405 415.203C388.522 415.144 388.658 415.133 388.782 415.174C388.907 415.215 389.011 415.304 389.07 415.421C389.125 415.526 389.141 415.647 389.117 415.764L387.423 422.059Z" fill="url(#paint2_linear_3983_607)"/>
<path d="M366.034 424.52C366.155 424.554 366.281 424.564 366.405 424.549C366.53 424.533 366.65 424.493 366.758 424.43L386.989 412.75C387.098 412.678 387.175 412.566 387.202 412.437C387.229 412.309 387.204 412.175 387.133 412.065C387.069 411.964 386.972 411.889 386.859 411.853L380.567 410.184C380.446 410.149 380.32 410.139 380.195 410.155C380.071 410.17 379.951 410.21 379.842 410.273L359.612 421.953C359.531 422.001 359.466 422.072 359.426 422.157C359.385 422.241 359.37 422.336 359.382 422.429C359.394 422.522 359.434 422.61 359.496 422.68C359.557 422.751 359.638 422.803 359.729 422.828L366.034 424.52Z" fill="url(#paint3_linear_3983_607)"/>
</g>
<g clip-path="url(#clip2_3983_607)">
<path d="M198.655 427.899C181.584 423.324 164.037 433.455 159.463 450.526C154.889 467.597 165.019 485.144 182.09 489.718C199.161 494.292 216.708 484.161 221.282 467.09C225.856 450.019 215.726 432.473 198.655 427.899Z" fill="#E84142"/>
<path fill-rule="evenodd" clip-rule="evenodd" d="M178.721 448.014L180.603 454.902C180.881 455.867 181.013 456.337 181.283 456.591C181.429 456.728 181.607 456.827 181.801 456.879C181.994 456.931 182.198 456.934 182.393 456.889C182.747 456.805 183.124 456.448 183.862 455.695L188.906 450.683C189.639 449.948 189.996 449.567 190.091 449.215C190.133 449.017 190.129 448.812 190.079 448.616C190.028 448.421 189.933 448.239 189.8 448.087C189.258 447.725 188.641 447.491 187.995 447.404L181.059 445.546C180.455 445.296 179.8 445.195 179.15 445.253C178.96 445.315 178.788 445.421 178.646 445.562C178.505 445.703 178.399 445.876 178.336 446.065C178.238 446.417 178.402 446.918 178.721 448.014Z" fill="white"/>
<path fill-rule="evenodd" clip-rule="evenodd" d="M183.776 463.335C183.498 463.854 183.343 464.431 183.325 465.02C183.375 465.774 183.521 466.52 183.761 467.237L185.083 472.193C185.346 473.214 185.487 473.729 185.777 473.982C185.923 474.119 186.101 474.218 186.294 474.27C186.488 474.322 186.691 474.325 186.886 474.279C187.261 474.204 187.642 473.819 188.378 473.076L205.986 455.26C206.717 454.524 207.058 454.139 207.158 453.768C207.2 453.573 207.195 453.37 207.144 453.178C207.092 452.985 206.996 452.807 206.862 452.658C206.322 452.294 205.704 452.06 205.057 451.976L200.195 450.673C199.464 450.434 198.707 450.278 197.941 450.208C197.34 450.231 196.754 450.394 196.227 450.683C195.588 451.112 195.01 451.626 194.509 452.211L185.263 461.63C184.698 462.133 184.198 462.706 183.776 463.335Z" fill="white"/>
</g>
<g clip-path="url(#clip3_3983_607)">
<path d="M16.5744 358.713C25.4109 374.018 44.9818 379.262 60.2872 370.426C75.5925 361.589 80.8366 342.018 72 326.713C63.1634 311.407 43.5926 306.163 28.2872 315C12.9818 323.837 7.73781 343.407 16.5744 358.713Z" fill="#5F7EDD"/>
<path d="M36.7366 347.068L36.8616 334.581L29.1128 351.47L47.6184 353.212L36.7366 347.068Z" fill="white"/>
<path d="M49.3806 352.187L38.4992 346.051L38.6254 333.559L59.4584 333.95L49.3806 352.187Z" fill="white"/>
<path d="M49.3805 352.188L48.2375 340.428L59.4584 333.95L49.3805 352.188Z" fill="#C1CCF7"/>
<path d="M47.6185 353.212L29.1129 351.47L36.7367 347.068L47.6185 353.212Z" fill="#C1CCF7"/>
<path d="M48.2375 340.428L38.4992 346.051L38.6269 333.562L48.2375 340.428Z" fill="#C1CCF7"/>
<path d="M49.3805 352.188L38.4991 346.051L48.2374 340.428L49.3805 352.188Z" fill="#8198EE"/>
</g>
<g clip-path="url(#clip4_3983_607)">
<path d="M72.7129 171C81.5494 155.695 76.3054 136.124 61 127.287C45.6947 118.451 26.1238 123.695 17.2872 139C8.45068 154.305 13.6947 173.876 29 182.713C44.3054 191.549 63.8763 186.305 72.7129 171Z" fill="#FF0420"/>
<path d="M47.5381 168.153C46.7563 169.635 45.5168 170.826 44.0039 171.548C43.3025 171.853 42.5373 171.982 41.7746 171.925C41.0119 171.867 40.2746 171.625 39.6266 171.219C39.2401 170.988 38.875 170.723 38.5358 170.427C37.6326 169.687 36.578 168.698 35.3131 167.535C33.7505 166.255 32.7264 164.434 32.4438 162.434C32.1613 160.433 32.641 158.4 33.7878 156.737C34.3496 155.718 35.1218 154.83 36.053 154.132C36.8495 153.49 37.821 153.103 38.8408 153.022C39.8853 152.941 40.9287 153.192 41.8228 153.738C42.1896 153.963 42.5369 154.217 42.8609 154.5C43.995 155.454 45.0846 156.409 46.1143 157.384C47.6002 158.725 48.6103 160.513 48.9926 162.478C49.1782 164.478 48.6906 166.483 47.607 168.174L47.5381 168.153ZM44.7469 166.024C45.1931 165.295 45.3644 164.431 45.2301 163.587C44.9747 162.665 44.4439 161.843 43.7085 161.23C42.5838 160.119 41.5567 159.197 40.6812 158.474C40.3873 158.264 40.0736 158.082 39.7445 157.933C39.3143 157.616 38.7762 157.481 38.2473 157.559C37.7184 157.636 37.2413 157.919 36.9198 158.346C36.8034 158.504 36.7095 158.677 36.6409 158.861C36.1979 159.595 36.0333 160.464 36.1771 161.309C36.394 162.25 36.9051 163.098 37.6361 163.729C38.6157 164.669 39.6408 165.56 40.7114 166.402C40.9736 166.587 41.2519 166.748 41.5428 166.882C42.8959 167.675 43.9229 167.451 44.7469 166.024ZM52.6798 158.78C52.6449 158.85 52.595 158.912 52.5336 158.961C52.4722 159.01 52.4008 159.044 52.3245 159.062C52.1744 159.031 52.0384 158.953 51.9365 158.838L39.8612 148.035C39.786 147.982 39.7244 147.912 39.6814 147.831C39.6384 147.749 39.6154 147.659 39.614 147.567C39.5719 147.397 39.5976 147.217 39.6857 147.065L42.9337 141.44C43.6439 140.082 44.7419 138.967 46.088 138.235C46.67 137.94 47.3197 137.805 47.9711 137.842C48.6226 137.879 49.2526 138.088 49.797 138.448C50.1652 138.673 50.5094 138.934 50.8239 139.229C52.0821 140.294 52.9049 141.785 53.136 143.417C53.2338 145.165 52.7748 146.898 51.8251 148.369L50.1179 151.326L54.2118 154.968C54.3459 155.065 54.4481 155.2 54.5053 155.355C54.5393 155.517 54.5175 155.686 54.4437 155.833L52.7141 158.829L52.6798 158.78ZM48.8467 146.59C49.1869 146.04 49.3229 145.387 49.2311 144.747C49.1698 144.087 48.8645 143.475 48.3751 143.029C48.1744 142.891 47.9631 142.769 47.7432 142.664C47.57 142.558 47.3771 142.486 47.176 142.454C46.9748 142.423 46.7694 142.431 46.5716 142.479C46.1078 142.692 45.7376 143.067 45.5305 143.534L44.1065 146L47.485 149.045L48.861 146.661L48.8467 146.59Z" fill="white"/>
</g>
<g clip-path="url(#clip5_3983_607)">
<path d="M199.474 70.537C216.545 65.9629 226.676 48.4161 222.101 31.3452C217.527 14.2743 199.981 4.14365 182.91 8.71779C165.839 13.2919 155.708 30.8387 160.282 47.9096C164.856 64.9805 182.403 75.1112 199.474 70.537Z" fill="#0089CD"/>
<path fill-rule="evenodd" clip-rule="evenodd" d="M201.199 27.1994C200.711 26.6702 200.055 26.3264 199.342 26.2262C198.689 26.0875 198.012 26.101 197.365 26.2657L179.323 31.1C178.63 31.24 177.995 31.5809 177.495 32.0801C177.154 32.3031 176.861 32.5918 176.633 32.9294C176.405 33.267 176.246 33.6466 176.167 34.0461C175.955 34.8102 175.991 35.6218 176.271 36.3637C176.515 37.0526 176.946 37.6599 177.516 38.1172L193.936 54.6548C194.131 54.8217 194.362 54.9396 194.611 54.9985C194.861 55.0574 195.12 55.0555 195.369 54.9932C195.629 54.9462 195.87 54.8256 196.064 54.6457C196.258 54.4658 196.396 54.2341 196.462 53.9781L202.463 31.4327C202.693 30.7118 202.693 29.9372 202.462 29.2166C202.217 28.4489 201.783 27.7552 201.199 27.1994ZM192.136 48.6041L179.493 35.8779C179.148 35.4801 178.972 35.282 178.972 35.282C178.885 35.0866 178.87 34.8667 178.929 34.661C178.959 34.4311 179.08 34.2226 179.263 34.081L187.643 31.8357L192.136 48.6041ZM199.445 29.886C199.553 30.1041 199.616 30.3416 199.632 30.5845L194.848 47.9569L190.362 31.2132L198.012 29.1633C198.274 29.0612 198.559 29.0284 198.838 29.0679L198.991 29.1562C199.111 29.1239 199.169 29.3403 199.29 29.308C199.396 29.4817 199.45 29.6824 199.445 29.886Z" fill="white"/>
</g>
<g clip-path="url(#clip6_3983_607)">
<path d="M358.713 109.426C374.018 118.262 393.589 113.018 402.426 97.7128C411.262 82.4074 406.018 62.8366 390.713 54C375.407 45.1634 355.837 50.4074 347 65.7128C338.163 81.0182 343.407 100.589 358.713 109.426Z" fill="#F3BC36"/>
<path fill-rule="evenodd" clip-rule="evenodd" d="M370.132 75.7649L379.615 73.2216L382.163 82.7291L387.684 81.2498L383.657 66.2213L368.652 70.2396L370.132 75.7649ZM359.221 72.7688L364.742 71.2895L366.222 76.8104L360.701 78.2897L359.221 72.7688ZM367.262 80.7366L369.81 90.204L379.318 87.6565L380.797 93.1774L365.767 97.207L361.746 82.2004L367.262 80.7366ZM383.204 86.6152L388.725 85.1359L390.207 90.6584L384.683 92.1361L383.204 86.6152ZM378.277 83.7704L372.665 85.26L371.166 79.6648L372.142 79.4008L372.63 79.2724L376.761 78.1656L378.277 83.7704Z" fill="white"/>
</g>
<defs>
<linearGradient id="paint0_linear_3983_607" x1="357.287" y1="389.574" x2="389.287" y2="445" gradientUnits="userSpaceOnUse">
<stop stop-color="#170E2B"/>
<stop offset="1" stop-color="#210066"/>
</linearGradient>
<linearGradient id="paint1_linear_3983_607" x1="370.07" y1="435.587" x2="368.591" y2="400.673" gradientUnits="userSpaceOnUse">
<stop stop-color="#00FFA3"/>
<stop offset="1" stop-color="#DC1FFF"/>
</linearGradient>
<linearGradient id="paint2_linear_3983_607" x1="378.029" y1="435.253" x2="376.534" y2="400.344" gradientUnits="userSpaceOnUse">
<stop stop-color="#00FFA3"/>
<stop offset="1" stop-color="#DC1FFF"/>
</linearGradient>
<linearGradient id="paint3_linear_3983_607" x1="374.06" y1="435.42" x2="372.584" y2="400.504" gradientUnits="userSpaceOnUse">
<stop stop-color="#00FFA3"/>
<stop offset="1" stop-color="#DC1FFF"/>
</linearGradient>
<clipPath id="clip0_3983_607">
<rect width="64" height="64" fill="white" transform="translate(487 217) rotate(90)"/>
</clipPath>
<clipPath id="clip1_3983_607">
<rect width="64" height="64" fill="white" transform="translate(417 429) rotate(150)"/>
</clipPath>
<clipPath id="clip2_3983_607">
<rect width="64" height="64" fill="white" transform="translate(213 498) rotate(-165)"/>
</clipPath>
<clipPath id="clip3_3983_607">
<rect width="64" height="64" fill="white" transform="translate(56 299) rotate(60)"/>
</clipPath>
<clipPath id="clip4_3983_607">
<rect width="64" height="64" fill="white" transform="translate(1.28723 166.713) rotate(-60)"/>
</clipPath>
<clipPath id="clip5_3983_607">
<rect width="64" height="64" fill="white" transform="translate(152 17) rotate(-15)"/>
</clipPath>
<clipPath id="clip6_3983_607">
<rect width="64" height="64" fill="white" transform="translate(363 38) rotate(30)"/>
</clipPath>
</defs>
</svg>
